%TF.GenerationSoftware,KiCad,Pcbnew,10.0.5*%
%TF.CreationDate,2026-10-04T14:30:10+05:30*%
%TF.ProjectId,Nightwave-Reference,4e696768-7477-4617-9665-2d5265666572,rev?*%
%TF.SameCoordinates,Original*%
%TF.FileFunction,Soldermask,Top*%
%TF.FilePolarity,Negative*%
%FSLAX46Y46*%
G04 Gerber Fmt 4.6, Leading zero omitted, Abs format (unit mm)*
G04 Created by KiCad (PCBNEW 10.0.5) date 2026-10-04 14:30:10*
%MOMM*%
%LPD*%
G01*
G04 APERTURE LIST*
G04 Aperture macros list*
%AMRoundRect*
0 Rectangle with rounded corners*
0 $1 Rounding radius*
0 $2 $3 $4 $5 $6 $7 $8 $9 X,Y pos of 4 corners*
0 Add a 4 corners polygon primitive as box body*
4,1,4,$2,$3,$4,$5,$6,$7,$8,$9,$2,$3,0*
0 Add four circle primitives for the rounded corners*
1,1,$1+$1,$2,$3*
1,1,$1+$1,$4,$5*
1,1,$1+$1,$6,$7*
1,1,$1+$1,$8,$9*
0 Add four rect primitives between the rounded corners*
20,1,$1+$1,$2,$3,$4,$5,0*
20,1,$1+$1,$4,$5,$6,$7,0*
20,1,$1+$1,$6,$7,$8,$9,0*
20,1,$1+$1,$8,$9,$2,$3,0*%
G04 Aperture macros list end*
%ADD10RoundRect,0.062500X-0.375000X-0.062500X0.375000X-0.062500X0.375000X0.062500X-0.375000X0.062500X0*%
%ADD11RoundRect,0.062500X-0.062500X-0.375000X0.062500X-0.375000X0.062500X0.375000X-0.062500X0.375000X0*%
%ADD12R,2.600000X2.600000*%
%ADD13C,1.000000*%
%ADD14RoundRect,0.200000X-0.200000X-0.275000X0.200000X-0.275000X0.200000X0.275000X-0.200000X0.275000X0*%
%ADD15RoundRect,0.225000X-0.225000X-0.250000X0.225000X-0.250000X0.225000X0.250000X-0.225000X0.250000X0*%
%ADD16RoundRect,0.062500X-0.325000X-0.062500X0.325000X-0.062500X0.325000X0.062500X-0.325000X0.062500X0*%
%ADD17R,0.800000X1.200000*%
%ADD18R,1.000000X0.800000*%
%ADD19C,0.900000*%
%ADD20R,0.700000X1.500000*%
%ADD21R,1.700000X1.700000*%
%ADD22C,1.700000*%
%ADD23R,1.700000X1.000000*%
%ADD24R,0.850000X1.100000*%
%ADD25R,0.750000X1.100000*%
%ADD26R,1.200000X1.000000*%
%ADD27R,1.550000X1.350000*%
%ADD28R,1.900000X1.350000*%
%ADD29R,1.170000X1.800000*%
%ADD30RoundRect,0.050000X-0.312500X-0.050000X0.312500X-0.050000X0.312500X0.050000X-0.312500X0.050000X0*%
%ADD31R,0.900000X1.500000*%
%ADD32RoundRect,0.250000X-0.350000X-0.625000X0.350000X-0.625000X0.350000X0.625000X-0.350000X0.625000X0*%
%ADD33O,1.200000X1.750000*%
%ADD34R,1.500000X0.900000*%
%ADD35C,0.600000*%
%ADD36R,3.900000X3.900000*%
%ADD37RoundRect,0.112500X-0.637500X-0.112500X0.637500X-0.112500X0.637500X0.112500X-0.637500X0.112500X0*%
%ADD38RoundRect,0.050000X-0.375000X-0.050000X0.375000X-0.050000X0.375000X0.050000X-0.375000X0.050000X0*%
%ADD39RoundRect,0.050000X-0.050000X-0.275000X0.050000X-0.275000X0.050000X0.275000X-0.050000X0.275000X0*%
%ADD40C,0.200000*%
%ADD41R,2.800000X2.200000*%
%ADD42R,2.800000X2.800000*%
%ADD43RoundRect,0.150000X-0.600000X-0.150000X0.600000X-0.150000X0.600000X0.150000X-0.600000X0.150000X0*%
%ADD44RoundRect,0.150000X-0.150000X-0.600000X0.150000X-0.600000X0.150000X0.600000X-0.150000X0.600000X0*%
%ADD45RoundRect,0.250000X-0.640000X-0.640000X0.640000X-0.640000X0.640000X0.640000X-0.640000X0.640000X0*%
%ADD46RoundRect,0.190000X-1.205000X-0.190000X1.205000X-0.190000X1.205000X0.190000X-1.205000X0.190000X0*%
%ADD47R,1.600000X1.600000*%
%ADD48C,0.650000*%
%ADD49RoundRect,0.150000X-0.150000X-0.425000X0.150000X-0.425000X0.150000X0.425000X-0.150000X0.425000X0*%
%ADD50RoundRect,0.075000X-0.075000X-0.500000X0.075000X-0.500000X0.075000X0.500000X-0.075000X0.500000X0*%
%ADD51O,1.000000X2.100000*%
%ADD52O,1.000000X1.800000*%
%ADD53RoundRect,0.062500X-0.237500X-0.062500X0.237500X-0.062500X0.237500X0.062500X-0.237500X0.062500X0*%
%ADD54R,0.900000X1.600000*%
%ADD55RoundRect,0.100000X-0.637500X-0.100000X0.637500X-0.100000X0.637500X0.100000X-0.637500X0.100000X0*%
%ADD56RoundRect,0.150000X-0.150000X-0.700000X0.150000X-0.700000X0.150000X0.700000X-0.150000X0.700000X0*%
%ADD57RoundRect,0.250000X-0.250000X-1.100000X0.250000X-1.100000X0.250000X1.100000X-0.250000X1.100000X0*%
G04 APERTURE END LIST*
D10*
%TO.C,U3*%
X38062500Y-40750000D03*
X38062500Y-41250000D03*
X38062500Y-41750000D03*
X38062500Y-42250000D03*
X38062500Y-42750000D03*
X38062500Y-43250000D03*
D11*
X38750000Y-43937500D03*
X39250000Y-43937500D03*
X39750000Y-43937500D03*
X40250000Y-43937500D03*
X40750000Y-43937500D03*
X41250000Y-43937500D03*
D10*
X41937500Y-43250000D03*
X41937500Y-42750000D03*
X41937500Y-42250000D03*
X41937500Y-41750000D03*
X41937500Y-41250000D03*
X41937500Y-40750000D03*
D11*
X41250000Y-40062500D03*
X40750000Y-40062500D03*
X40250000Y-40062500D03*
X39750000Y-40062500D03*
X39250000Y-40062500D03*
X38750000Y-40062500D03*
D12*
X40000000Y-42000000D03*
%TD*%
D13*
%TO.C,TP4*%
X73000000Y-94000000D03*
%TD*%
D14*
%TO.C,R6*%
X54175000Y-28000000D03*
X55825000Y-28000000D03*
%TD*%
D15*
%TO.C,C5*%
X59225000Y-50000000D03*
X60775000Y-50000000D03*
%TD*%
D16*
%TO.C,U7*%
X63012500Y-55250000D03*
X63012500Y-55750000D03*
X63012500Y-56250000D03*
X63012500Y-56750000D03*
X64987500Y-56750000D03*
X64987500Y-56250000D03*
X64987500Y-55750000D03*
X64987500Y-55250000D03*
D17*
X64000000Y-56000000D03*
%TD*%
D13*
%TO.C,TP6*%
X105000000Y-94000000D03*
%TD*%
D15*
%TO.C,C4*%
X53725000Y-50000000D03*
X55275000Y-50000000D03*
%TD*%
D18*
%TO.C,SW6*%
X6350000Y-69220000D03*
X6350000Y-71430000D03*
D19*
X8500000Y-70330000D03*
X11500000Y-70330000D03*
D18*
X13650000Y-69220000D03*
X13650000Y-71430000D03*
D20*
X7750000Y-68570000D03*
X10750000Y-68570000D03*
X12250000Y-68570000D03*
%TD*%
D13*
%TO.C,TP8*%
X41000000Y-100000000D03*
%TD*%
D21*
%TO.C,J8*%
X15000000Y-57000000D03*
D22*
X15000000Y-59540000D03*
X15000000Y-62080000D03*
X15000000Y-64620000D03*
X15000000Y-67160000D03*
X15000000Y-69700000D03*
%TD*%
D23*
%TO.C,SW2*%
X35850000Y-86100000D03*
X42150000Y-86100000D03*
X35850000Y-89900000D03*
X42150000Y-89900000D03*
%TD*%
D24*
%TO.C,J4*%
X58895000Y-12550000D03*
X59995000Y-12550000D03*
X61095000Y-12550000D03*
X62195000Y-12550000D03*
X63295000Y-12550000D03*
X64395000Y-12550000D03*
X65495000Y-12550000D03*
D25*
X66545000Y-12550000D03*
D26*
X56260000Y-18700000D03*
X56260000Y-22400000D03*
D27*
X56435000Y-12675000D03*
D28*
X59760000Y-23375000D03*
X65730000Y-23375000D03*
D29*
X67755000Y-12900000D03*
%TD*%
D23*
%TO.C,SW3*%
X49850000Y-86100000D03*
X56150000Y-86100000D03*
X49850000Y-89900000D03*
X56150000Y-89900000D03*
%TD*%
D13*
%TO.C,TP5*%
X89000000Y-94000000D03*
%TD*%
D14*
%TO.C,R13*%
X90175000Y-54000000D03*
X91825000Y-54000000D03*
%TD*%
D13*
%TO.C,TP11*%
X89000000Y-100000000D03*
%TD*%
D15*
%TO.C,C2*%
X42725000Y-50000000D03*
X44275000Y-50000000D03*
%TD*%
%TO.C,C1*%
X37225000Y-50000000D03*
X38775000Y-50000000D03*
%TD*%
D14*
%TO.C,R10*%
X62175000Y-75000000D03*
X63825000Y-75000000D03*
%TD*%
D13*
%TO.C,TP10*%
X73000000Y-100000000D03*
%TD*%
D30*
%TO.C,U5*%
X63987500Y-41200000D03*
X63987500Y-41600000D03*
X63987500Y-42000000D03*
X63987500Y-42400000D03*
X63987500Y-42800000D03*
X66012500Y-42800000D03*
X66012500Y-42400000D03*
X66012500Y-42000000D03*
X66012500Y-41600000D03*
X66012500Y-41200000D03*
D31*
X65000000Y-42000000D03*
%TD*%
D32*
%TO.C,J2*%
X88000000Y-43000000D03*
D33*
X90000000Y-43000000D03*
%TD*%
D14*
%TO.C,R7*%
X53175000Y-75000000D03*
X54825000Y-75000000D03*
%TD*%
D34*
%TO.C,U1*%
X23250000Y-12740000D03*
X23250000Y-14010000D03*
X23250000Y-15280000D03*
X23250000Y-16550000D03*
X23250000Y-17820000D03*
X23250000Y-19090000D03*
X23250000Y-20360000D03*
X23250000Y-21630000D03*
X23250000Y-22900000D03*
X23250000Y-24170000D03*
X23250000Y-25440000D03*
X23250000Y-26710000D03*
X23250000Y-27980000D03*
X23250000Y-29250000D03*
D31*
X25015000Y-30500000D03*
X26285000Y-30500000D03*
X27555000Y-30500000D03*
X28825000Y-30500000D03*
X30095000Y-30500000D03*
X31365000Y-30500000D03*
X32635000Y-30500000D03*
X33905000Y-30500000D03*
X35175000Y-30500000D03*
X36445000Y-30500000D03*
X37715000Y-30500000D03*
X38985000Y-30500000D03*
D34*
X40750000Y-29250000D03*
X40750000Y-27980000D03*
X40750000Y-26710000D03*
X40750000Y-25440000D03*
X40750000Y-24170000D03*
X40750000Y-22900000D03*
X40750000Y-21630000D03*
X40750000Y-20360000D03*
X40750000Y-19090000D03*
X40750000Y-17820000D03*
X40750000Y-16550000D03*
X40750000Y-15280000D03*
X40750000Y-14010000D03*
X40750000Y-12740000D03*
D35*
X29100000Y-19760000D03*
X29100000Y-21160000D03*
X29800000Y-19060000D03*
X29800000Y-20460000D03*
X29800000Y-21860000D03*
X30500000Y-19760000D03*
D36*
X30500000Y-20460000D03*
D35*
X30500000Y-21160000D03*
X31200000Y-19060000D03*
X31200000Y-20460000D03*
X31200000Y-21860000D03*
X31900000Y-19760000D03*
X31900000Y-21160000D03*
%TD*%
D13*
%TO.C,TP1*%
X25000000Y-94000000D03*
%TD*%
D37*
%TO.C,U8*%
X59100000Y-65075000D03*
X59100000Y-65725000D03*
X59100000Y-66375000D03*
X59100000Y-67025000D03*
X59100000Y-67675000D03*
X59100000Y-68325000D03*
X59100000Y-68975000D03*
X59100000Y-69625000D03*
X59100000Y-70275000D03*
X59100000Y-70925000D03*
X64900000Y-70925000D03*
X64900000Y-70275000D03*
X64900000Y-69625000D03*
X64900000Y-68975000D03*
X64900000Y-68325000D03*
X64900000Y-67675000D03*
X64900000Y-67025000D03*
X64900000Y-66375000D03*
X64900000Y-65725000D03*
X64900000Y-65075000D03*
%TD*%
D14*
%TO.C,R15*%
X96175000Y-54000000D03*
X97825000Y-54000000D03*
%TD*%
%TO.C,R1*%
X24175000Y-50000000D03*
X25825000Y-50000000D03*
%TD*%
D15*
%TO.C,C7*%
X70225000Y-50000000D03*
X71775000Y-50000000D03*
%TD*%
D32*
%TO.C,J3*%
X88000000Y-54000000D03*
D33*
X90000000Y-54000000D03*
%TD*%
D13*
%TO.C,TP9*%
X57000000Y-100000000D03*
%TD*%
D23*
%TO.C,SW5*%
X77850000Y-86100000D03*
X84150000Y-86100000D03*
X77850000Y-89900000D03*
X84150000Y-89900000D03*
%TD*%
D13*
%TO.C,TP2*%
X41000000Y-94000000D03*
%TD*%
D38*
%TO.C,U2*%
X24275000Y-42800000D03*
X24275000Y-43200000D03*
D39*
X24400000Y-43825000D03*
X24800000Y-43825000D03*
X25200000Y-43825000D03*
X25600000Y-43825000D03*
D38*
X25725000Y-43200000D03*
X25725000Y-42800000D03*
D39*
X25600000Y-42175000D03*
X25200000Y-42175000D03*
X24800000Y-42175000D03*
X24400000Y-42175000D03*
%TD*%
D23*
%TO.C,SW1*%
X21850000Y-86100000D03*
X28150000Y-86100000D03*
X21850000Y-89900000D03*
X28150000Y-89900000D03*
%TD*%
D14*
%TO.C,R12*%
X68175000Y-75000000D03*
X69825000Y-75000000D03*
%TD*%
D40*
%TO.C,U10*%
X91600000Y-67600000D03*
X92000000Y-67600000D03*
X92400000Y-67600000D03*
X91600000Y-68000000D03*
X92000000Y-68000000D03*
X92400000Y-68000000D03*
X91600000Y-68400000D03*
X92000000Y-68400000D03*
X92400000Y-68400000D03*
%TD*%
D15*
%TO.C,C3*%
X48225000Y-50000000D03*
X49775000Y-50000000D03*
%TD*%
D23*
%TO.C,SW4*%
X63850000Y-86100000D03*
X70150000Y-86100000D03*
X63850000Y-89900000D03*
X70150000Y-89900000D03*
%TD*%
D22*
%TO.C,J5*%
X107000000Y-63500000D03*
X107000000Y-70500000D03*
D41*
X110700000Y-64400000D03*
X103300000Y-62400000D03*
D42*
X103300000Y-71800000D03*
%TD*%
D14*
%TO.C,R5*%
X51175000Y-28000000D03*
X52825000Y-28000000D03*
%TD*%
D13*
%TO.C,TP7*%
X25000000Y-100000000D03*
%TD*%
%TO.C,TP3*%
X57000000Y-94000000D03*
%TD*%
D14*
%TO.C,R2*%
X27175000Y-50000000D03*
X28825000Y-50000000D03*
%TD*%
D13*
%TO.C,TP12*%
X105000000Y-100000000D03*
%TD*%
D14*
%TO.C,R4*%
X33175000Y-50000000D03*
X34825000Y-50000000D03*
%TD*%
D43*
%TO.C,U12*%
X91750000Y-15100000D03*
X91750000Y-16100000D03*
X91750000Y-17100000D03*
X91750000Y-18100000D03*
X91750000Y-19100000D03*
X91750000Y-20100000D03*
X91750000Y-21100000D03*
X91750000Y-22100000D03*
X91750000Y-23100000D03*
X91750000Y-24100000D03*
X91750000Y-25100000D03*
X91750000Y-26100000D03*
X91750000Y-27100000D03*
X91750000Y-28100000D03*
X91750000Y-29100000D03*
X91750000Y-30100000D03*
X91750000Y-31100000D03*
X91750000Y-32100000D03*
X91750000Y-33100000D03*
X91750000Y-34100000D03*
D44*
X94500000Y-35750000D03*
X95500000Y-35750000D03*
X96500000Y-35750000D03*
X97500000Y-35750000D03*
X98500000Y-35750000D03*
X99500000Y-35750000D03*
X100500000Y-35750000D03*
X101500000Y-35750000D03*
X102500000Y-35750000D03*
X103500000Y-35750000D03*
D43*
X106250000Y-34100000D03*
X106250000Y-33100000D03*
X106250000Y-32100000D03*
X106250000Y-31100000D03*
X106250000Y-30100000D03*
X106250000Y-29100000D03*
X106250000Y-28100000D03*
X106250000Y-27100000D03*
X106250000Y-26100000D03*
X106250000Y-25100000D03*
X106250000Y-24100000D03*
X106250000Y-23100000D03*
X106250000Y-22100000D03*
X106250000Y-21100000D03*
X106250000Y-20100000D03*
X106250000Y-19100000D03*
X106250000Y-18100000D03*
X106250000Y-17100000D03*
X106250000Y-16100000D03*
X106250000Y-15100000D03*
D45*
X103770000Y-25530000D03*
D46*
X95710000Y-15420000D03*
%TD*%
D10*
%TO.C,U9*%
X76562500Y-67250000D03*
X76562500Y-67750000D03*
X76562500Y-68250000D03*
X76562500Y-68750000D03*
D11*
X77250000Y-69437500D03*
X77750000Y-69437500D03*
X78250000Y-69437500D03*
X78750000Y-69437500D03*
D10*
X79437500Y-68750000D03*
X79437500Y-68250000D03*
X79437500Y-67750000D03*
X79437500Y-67250000D03*
D11*
X78750000Y-66562500D03*
X78250000Y-66562500D03*
X77750000Y-66562500D03*
X77250000Y-66562500D03*
D47*
X78000000Y-68000000D03*
%TD*%
D48*
%TO.C,J1*%
X6110000Y-39395000D03*
X11890000Y-39395000D03*
D49*
X5800000Y-38320000D03*
X6600000Y-38320000D03*
D50*
X7750000Y-38320000D03*
X8750000Y-38320000D03*
X9250000Y-38320000D03*
X10250000Y-38320000D03*
D49*
X11400000Y-38320000D03*
X12200000Y-38320000D03*
X12200000Y-38320000D03*
X11400000Y-38320000D03*
D50*
X10750000Y-38320000D03*
X9750000Y-38320000D03*
X8250000Y-38320000D03*
X7250000Y-38320000D03*
D49*
X6600000Y-38320000D03*
X5800000Y-38320000D03*
D51*
X4680000Y-38895000D03*
D52*
X4680000Y-43075000D03*
D51*
X13320000Y-38895000D03*
D52*
X13320000Y-43075000D03*
%TD*%
D14*
%TO.C,R8*%
X56175000Y-75000000D03*
X57825000Y-75000000D03*
%TD*%
%TO.C,R14*%
X93175000Y-54000000D03*
X94825000Y-54000000D03*
%TD*%
%TO.C,R9*%
X59175000Y-75000000D03*
X60825000Y-75000000D03*
%TD*%
D53*
%TO.C,U4*%
X52050000Y-41250000D03*
X52050000Y-41750000D03*
X52050000Y-42250000D03*
X52050000Y-42750000D03*
X53950000Y-42750000D03*
X53950000Y-42250000D03*
X53950000Y-41750000D03*
X53950000Y-41250000D03*
D54*
X53000000Y-42000000D03*
%TD*%
D15*
%TO.C,C6*%
X64725000Y-50000000D03*
X66275000Y-50000000D03*
%TD*%
D55*
%TO.C,U11*%
X39137500Y-70425000D03*
X39137500Y-71075000D03*
X39137500Y-71725000D03*
X39137500Y-72375000D03*
X39137500Y-73025000D03*
X39137500Y-73675000D03*
X39137500Y-74325000D03*
X39137500Y-74975000D03*
X39137500Y-75625000D03*
X39137500Y-76275000D03*
X39137500Y-76925000D03*
X39137500Y-77575000D03*
X44862500Y-77575000D03*
X44862500Y-76925000D03*
X44862500Y-76275000D03*
X44862500Y-75625000D03*
X44862500Y-74975000D03*
X44862500Y-74325000D03*
X44862500Y-73675000D03*
X44862500Y-73025000D03*
X44862500Y-72375000D03*
X44862500Y-71725000D03*
X44862500Y-71075000D03*
X44862500Y-70425000D03*
%TD*%
D30*
%TO.C,U6*%
X74987500Y-41200000D03*
X74987500Y-41600000D03*
X74987500Y-42000000D03*
X74987500Y-42400000D03*
X74987500Y-42800000D03*
X77012500Y-42800000D03*
X77012500Y-42400000D03*
X77012500Y-42000000D03*
X77012500Y-41600000D03*
X77012500Y-41200000D03*
D31*
X76000000Y-42000000D03*
%TD*%
D14*
%TO.C,R11*%
X65175000Y-75000000D03*
X66825000Y-75000000D03*
%TD*%
%TO.C,R3*%
X30175000Y-50000000D03*
X31825000Y-50000000D03*
%TD*%
D32*
%TO.C,J6*%
X107000000Y-77000000D03*
D33*
X109000000Y-77000000D03*
%TD*%
D15*
%TO.C,C8*%
X75725000Y-50000000D03*
X77275000Y-50000000D03*
%TD*%
D56*
%TO.C,J7*%
X7625000Y-30150000D03*
X8875000Y-30150000D03*
X10125000Y-30150000D03*
X11375000Y-30150000D03*
X12625000Y-30150000D03*
X13875000Y-30150000D03*
X15125000Y-30150000D03*
X16375000Y-30150000D03*
D57*
X5775000Y-33350000D03*
X18225000Y-33350000D03*
%TD*%
M02*
