%TF.GenerationSoftware,KiCad,Pcbnew,10.0.5*%
%TF.CreationDate,2026-10-06T09:38:30+05:30*%
%TF.ProjectId,Nightwave-Reference,4e696768-7477-4617-9665-2d5265666572,rev?*%
%TF.SameCoordinates,Original*%
%TF.FileFunction,Paste,Top*%
%TF.FilePolarity,Positive*%
%FSLAX46Y46*%
G04 Gerber Fmt 4.6, Leading zero omitted, Abs format (unit mm)*
G04 Created by KiCad (PCBNEW 10.0.5) date 2026-10-06 09:38:30*
%MOMM*%
%LPD*%
G01*
G04 APERTURE LIST*
G04 Aperture macros list*
%AMRoundRect*
0 Rectangle with rounded corners*
0 $1 Rounding radius*
0 $2 $3 $4 $5 $6 $7 $8 $9 X,Y pos of 4 corners*
0 Add a 4 corners polygon primitive as box body*
4,1,4,$2,$3,$4,$5,$6,$7,$8,$9,$2,$3,0*
0 Add four circle primitives for the rounded corners*
1,1,$1+$1,$2,$3*
1,1,$1+$1,$4,$5*
1,1,$1+$1,$6,$7*
1,1,$1+$1,$8,$9*
0 Add four rect primitives between the rounded corners*
20,1,$1+$1,$2,$3,$4,$5,0*
20,1,$1+$1,$4,$5,$6,$7,0*
20,1,$1+$1,$6,$7,$8,$9,0*
20,1,$1+$1,$8,$9,$2,$3,0*%
G04 Aperture macros list end*
%ADD10RoundRect,0.200000X-0.200000X-0.275000X0.200000X-0.275000X0.200000X0.275000X-0.200000X0.275000X0*%
%ADD11RoundRect,0.250000X-0.250000X-0.475000X0.250000X-0.475000X0.250000X0.475000X-0.250000X0.475000X0*%
%ADD12RoundRect,0.025000X-0.275000X-0.100000X0.275000X-0.100000X0.275000X0.100000X-0.275000X0.100000X0*%
%ADD13RoundRect,0.025000X-0.425000X-0.100000X0.425000X-0.100000X0.425000X0.100000X-0.425000X0.100000X0*%
%ADD14RoundRect,0.025000X-0.625000X-0.100000X0.625000X-0.100000X0.625000X0.100000X-0.625000X0.100000X0*%
%ADD15RoundRect,0.225000X-0.225000X-0.250000X0.225000X-0.250000X0.225000X0.250000X-0.225000X0.250000X0*%
%ADD16RoundRect,0.150000X-0.600000X-0.150000X0.600000X-0.150000X0.600000X0.150000X-0.600000X0.150000X0*%
%ADD17RoundRect,0.150000X-0.150000X-0.600000X0.150000X-0.600000X0.150000X0.600000X-0.150000X0.600000X0*%
%ADD18RoundRect,0.250000X-0.640000X-0.640000X0.640000X-0.640000X0.640000X0.640000X-0.640000X0.640000X0*%
%ADD19RoundRect,0.190000X-1.205000X-0.190000X1.205000X-0.190000X1.205000X0.190000X-1.205000X0.190000X0*%
%ADD20RoundRect,0.125000X-0.125000X-0.125000X0.125000X-0.125000X0.125000X0.125000X-0.125000X0.125000X0*%
%ADD21RoundRect,0.062500X-0.350000X-0.062500X0.350000X-0.062500X0.350000X0.062500X-0.350000X0.062500X0*%
%ADD22RoundRect,0.062500X-0.062500X-0.350000X0.062500X-0.350000X0.062500X0.350000X-0.062500X0.350000X0*%
%ADD23R,1.000000X0.800000*%
%ADD24R,0.700000X1.500000*%
%ADD25R,1.700000X1.000000*%
%ADD26R,0.850000X1.100000*%
%ADD27R,0.750000X1.100000*%
%ADD28R,1.200000X1.000000*%
%ADD29R,1.550000X1.350000*%
%ADD30R,1.900000X1.350000*%
%ADD31R,1.170000X1.800000*%
%ADD32RoundRect,0.150000X-0.150000X-0.700000X0.150000X-0.700000X0.150000X0.700000X-0.150000X0.700000X0*%
%ADD33RoundRect,0.250000X-0.250000X-1.100000X0.250000X-1.100000X0.250000X1.100000X-0.250000X1.100000X0*%
%ADD34RoundRect,0.112500X-0.637500X-0.112500X0.637500X-0.112500X0.637500X0.112500X-0.637500X0.112500X0*%
%ADD35RoundRect,0.172500X-0.172500X-0.172500X0.172500X-0.172500X0.172500X0.172500X-0.172500X0.172500X0*%
%ADD36RoundRect,0.062500X-0.375000X-0.062500X0.375000X-0.062500X0.375000X0.062500X-0.375000X0.062500X0*%
%ADD37RoundRect,0.062500X-0.062500X-0.375000X0.062500X-0.375000X0.062500X0.375000X-0.062500X0.375000X0*%
%ADD38RoundRect,0.185000X-0.230000X-0.185000X0.230000X-0.185000X0.230000X0.185000X-0.230000X0.185000X0*%
%ADD39RoundRect,0.062500X-0.237500X-0.062500X0.237500X-0.062500X0.237500X0.062500X-0.237500X0.062500X0*%
%ADD40RoundRect,0.020000X-0.367500X-0.080000X0.367500X-0.080000X0.367500X0.080000X-0.367500X0.080000X0*%
%ADD41RoundRect,0.020000X-0.080000X-0.330000X0.080000X-0.330000X0.080000X0.330000X-0.080000X0.330000X0*%
%ADD42RoundRect,0.020000X-0.292500X-0.080000X0.292500X-0.080000X0.292500X0.080000X-0.292500X0.080000X0*%
%ADD43RoundRect,0.020000X-0.080000X-0.280000X0.080000X-0.280000X0.080000X0.280000X-0.080000X0.280000X0*%
%ADD44RoundRect,0.020000X-0.080000X-0.480000X0.080000X-0.480000X0.080000X0.480000X-0.080000X0.480000X0*%
%ADD45RoundRect,0.020000X-0.392500X-0.080000X0.392500X-0.080000X0.392500X0.080000X-0.392500X0.080000X0*%
%ADD46RoundRect,0.020000X-0.280000X-0.080000X0.280000X-0.080000X0.280000X0.080000X-0.280000X0.080000X0*%
%ADD47RoundRect,0.020000X-0.080000X-0.289500X0.080000X-0.289500X0.080000X0.289500X-0.080000X0.289500X0*%
%ADD48RoundRect,0.098000X-0.392000X-1.602000X0.392000X-1.602000X0.392000X1.602000X-0.392000X1.602000X0*%
%ADD49RoundRect,0.080000X-0.080000X-0.160000X0.080000X-0.160000X0.080000X0.160000X-0.080000X0.160000X0*%
%ADD50RoundRect,0.062500X-0.325000X-0.062500X0.325000X-0.062500X0.325000X0.062500X-0.325000X0.062500X0*%
%ADD51RoundRect,0.150000X-0.425000X0.150000X-0.425000X-0.150000X0.425000X-0.150000X0.425000X0.150000X0*%
%ADD52RoundRect,0.075000X-0.500000X0.075000X-0.500000X-0.075000X0.500000X-0.075000X0.500000X0.075000X0*%
%ADD53O,2.100000X1.000000*%
%ADD54O,1.800000X1.000000*%
%ADD55RoundRect,0.100000X-0.637500X-0.100000X0.637500X-0.100000X0.637500X0.100000X-0.637500X0.100000X0*%
%ADD56R,0.900000X0.900000*%
%ADD57R,1.500000X0.900000*%
%ADD58R,0.900000X1.500000*%
G04 APERTURE END LIST*
D10*
%TO.C,R25*%
X43675000Y-49500000D03*
X45325000Y-49500000D03*
%TD*%
D11*
%TO.C,C32*%
X88050000Y-64000000D03*
X89950000Y-64000000D03*
%TD*%
%TO.C,C17*%
X12550000Y-48500000D03*
X14450000Y-48500000D03*
%TD*%
D12*
%TO.C,U6*%
X77100000Y-54000000D03*
X77100000Y-54500000D03*
X77100000Y-55000000D03*
X77100000Y-55500000D03*
X77100000Y-56000000D03*
D13*
X78550000Y-56000000D03*
X78550000Y-55500000D03*
D14*
X78350000Y-55000000D03*
D13*
X78550000Y-54500000D03*
X78550000Y-54000000D03*
%TD*%
D11*
%TO.C,C10*%
X34550000Y-51500000D03*
X36450000Y-51500000D03*
%TD*%
D10*
%TO.C,R47*%
X45175000Y-84000000D03*
X46825000Y-84000000D03*
%TD*%
%TO.C,R23*%
X8675000Y-51500000D03*
X10325000Y-51500000D03*
%TD*%
D11*
%TO.C,C19*%
X58050000Y-29000000D03*
X59950000Y-29000000D03*
%TD*%
D15*
%TO.C,C1*%
X32725000Y-57500000D03*
X34275000Y-57500000D03*
%TD*%
D10*
%TO.C,R4*%
X27675000Y-55500000D03*
X29325000Y-55500000D03*
%TD*%
D11*
%TO.C,C34*%
X47050000Y-74000000D03*
X48950000Y-74000000D03*
%TD*%
%TO.C,C35*%
X32550000Y-48500000D03*
X34450000Y-48500000D03*
%TD*%
%TO.C,C25*%
X64050000Y-63000000D03*
X65950000Y-63000000D03*
%TD*%
D10*
%TO.C,R17*%
X63175000Y-60000000D03*
X64825000Y-60000000D03*
%TD*%
D11*
%TO.C,C20*%
X62050000Y-29000000D03*
X63950000Y-29000000D03*
%TD*%
D10*
%TO.C,R37*%
X29175000Y-81500000D03*
X30825000Y-81500000D03*
%TD*%
D16*
%TO.C,U12*%
X91750000Y-17100000D03*
X91750000Y-18100000D03*
X91750000Y-19100000D03*
X91750000Y-20100000D03*
X91750000Y-21100000D03*
X91750000Y-22100000D03*
X91750000Y-23100000D03*
X91750000Y-24100000D03*
X91750000Y-25100000D03*
X91750000Y-26100000D03*
X91750000Y-27100000D03*
X91750000Y-28100000D03*
X91750000Y-29100000D03*
X91750000Y-30100000D03*
X91750000Y-31100000D03*
X91750000Y-32100000D03*
X91750000Y-33100000D03*
X91750000Y-34100000D03*
X91750000Y-35100000D03*
X91750000Y-36100000D03*
D17*
X94500000Y-37750000D03*
X95500000Y-37750000D03*
X96500000Y-37750000D03*
X97500000Y-37750000D03*
X98500000Y-37750000D03*
X99500000Y-37750000D03*
X100500000Y-37750000D03*
X101500000Y-37750000D03*
X102500000Y-37750000D03*
X103500000Y-37750000D03*
D16*
X106250000Y-36100000D03*
X106250000Y-35100000D03*
X106250000Y-34100000D03*
X106250000Y-33100000D03*
X106250000Y-32100000D03*
X106250000Y-31100000D03*
X106250000Y-30100000D03*
X106250000Y-29100000D03*
X106250000Y-28100000D03*
X106250000Y-27100000D03*
X106250000Y-26100000D03*
X106250000Y-25100000D03*
X106250000Y-24100000D03*
X106250000Y-23100000D03*
X106250000Y-22100000D03*
X106250000Y-21100000D03*
X106250000Y-20100000D03*
X106250000Y-19100000D03*
X106250000Y-18100000D03*
X106250000Y-17100000D03*
D18*
X103770000Y-27530000D03*
D19*
X95710000Y-17420000D03*
%TD*%
D10*
%TO.C,R10*%
X63175000Y-76000000D03*
X64825000Y-76000000D03*
%TD*%
%TO.C,R1*%
X24175000Y-58000000D03*
X25825000Y-58000000D03*
%TD*%
%TO.C,R43*%
X29175000Y-83500000D03*
X30825000Y-83500000D03*
%TD*%
D15*
%TO.C,C2*%
X42225000Y-58000000D03*
X43775000Y-58000000D03*
%TD*%
D11*
%TO.C,C23*%
X67550000Y-66000000D03*
X69450000Y-66000000D03*
%TD*%
D10*
%TO.C,R45*%
X37175000Y-83500000D03*
X38825000Y-83500000D03*
%TD*%
%TO.C,R24*%
X20175000Y-58500000D03*
X21825000Y-58500000D03*
%TD*%
%TO.C,R11*%
X65175000Y-73000000D03*
X66825000Y-73000000D03*
%TD*%
%TO.C,R36*%
X49175000Y-79000000D03*
X50825000Y-79000000D03*
%TD*%
D20*
%TO.C,U10*%
X91690000Y-67690000D03*
X91690000Y-68310000D03*
X92310000Y-67690000D03*
X92310000Y-68310000D03*
D21*
X90562500Y-67250000D03*
X90562500Y-67750000D03*
X90562500Y-68250000D03*
X90562500Y-68750000D03*
D22*
X91250000Y-69437500D03*
X91750000Y-69437500D03*
X92250000Y-69437500D03*
X92750000Y-69437500D03*
D21*
X93437500Y-68750000D03*
X93437500Y-68250000D03*
X93437500Y-67750000D03*
X93437500Y-67250000D03*
D22*
X92750000Y-66562500D03*
X92250000Y-66562500D03*
X91750000Y-66562500D03*
X91250000Y-66562500D03*
%TD*%
D11*
%TO.C,C29*%
X70050000Y-62000000D03*
X71950000Y-62000000D03*
%TD*%
%TO.C,C31*%
X81550000Y-69000000D03*
X83450000Y-69000000D03*
%TD*%
%TO.C,C36*%
X87550000Y-36000000D03*
X89450000Y-36000000D03*
%TD*%
D10*
%TO.C,R2*%
X20675000Y-56500000D03*
X22325000Y-56500000D03*
%TD*%
D15*
%TO.C,C6*%
X80725000Y-54000000D03*
X82275000Y-54000000D03*
%TD*%
D10*
%TO.C,R20*%
X38175000Y-60000000D03*
X39825000Y-60000000D03*
%TD*%
D11*
%TO.C,C14*%
X80550000Y-58000000D03*
X82450000Y-58000000D03*
%TD*%
D10*
%TO.C,R42*%
X49175000Y-81500000D03*
X50825000Y-81500000D03*
%TD*%
%TO.C,R29*%
X61175000Y-74000000D03*
X62825000Y-74000000D03*
%TD*%
%TO.C,R39*%
X37175000Y-81500000D03*
X38825000Y-81500000D03*
%TD*%
%TO.C,R31*%
X29175000Y-79000000D03*
X30825000Y-79000000D03*
%TD*%
D23*
%TO.C,SW6*%
X6350000Y-73720000D03*
X6350000Y-75930000D03*
X13650000Y-73720000D03*
X13650000Y-75930000D03*
D24*
X7750000Y-73070000D03*
X10750000Y-73070000D03*
X12250000Y-73070000D03*
%TD*%
D10*
%TO.C,R3*%
X24175000Y-56000000D03*
X25825000Y-56000000D03*
%TD*%
%TO.C,R15*%
X96175000Y-54000000D03*
X97825000Y-54000000D03*
%TD*%
D25*
%TO.C,SW2*%
X35850000Y-86100000D03*
X42150000Y-86100000D03*
X35850000Y-89900000D03*
X42150000Y-89900000D03*
%TD*%
D26*
%TO.C,J4*%
X60395000Y-12550000D03*
X61495000Y-12550000D03*
X62595000Y-12550000D03*
X63695000Y-12550000D03*
X64795000Y-12550000D03*
X65895000Y-12550000D03*
X66995000Y-12550000D03*
D27*
X68045000Y-12550000D03*
D28*
X57760000Y-18700000D03*
X57760000Y-22400000D03*
D29*
X57935000Y-12675000D03*
D30*
X61260000Y-23375000D03*
X67230000Y-23375000D03*
D31*
X69255000Y-12900000D03*
%TD*%
D11*
%TO.C,C24*%
X67550000Y-69000000D03*
X69450000Y-69000000D03*
%TD*%
D10*
%TO.C,R30*%
X57175000Y-60500000D03*
X58825000Y-60500000D03*
%TD*%
%TO.C,R27*%
X90675000Y-74000000D03*
X92325000Y-74000000D03*
%TD*%
D11*
%TO.C,C37*%
X95050000Y-40500000D03*
X96950000Y-40500000D03*
%TD*%
D10*
%TO.C,R28*%
X77175000Y-74000000D03*
X78825000Y-74000000D03*
%TD*%
D15*
%TO.C,C4*%
X54225000Y-57500000D03*
X55775000Y-57500000D03*
%TD*%
%TO.C,C8*%
X36225000Y-58000000D03*
X37775000Y-58000000D03*
%TD*%
D11*
%TO.C,C28*%
X81550000Y-66000000D03*
X83450000Y-66000000D03*
%TD*%
D15*
%TO.C,C7*%
X70225000Y-50000000D03*
X71775000Y-50000000D03*
%TD*%
D10*
%TO.C,R32*%
X33175000Y-79000000D03*
X34825000Y-79000000D03*
%TD*%
D11*
%TO.C,C27*%
X72550000Y-69000000D03*
X74450000Y-69000000D03*
%TD*%
D10*
%TO.C,R6*%
X59675000Y-33500000D03*
X61325000Y-33500000D03*
%TD*%
%TO.C,R19*%
X75675000Y-59500000D03*
X77325000Y-59500000D03*
%TD*%
D11*
%TO.C,C9*%
X35050000Y-55200000D03*
X36950000Y-55200000D03*
%TD*%
D32*
%TO.C,J7*%
X19125000Y-49150000D03*
X20375000Y-49150000D03*
X21625000Y-49150000D03*
X22875000Y-49150000D03*
X24125000Y-49150000D03*
X25375000Y-49150000D03*
X26625000Y-49150000D03*
X27875000Y-49150000D03*
D33*
X17275000Y-52350000D03*
X29725000Y-52350000D03*
%TD*%
D10*
%TO.C,R46*%
X41175000Y-83500000D03*
X42825000Y-83500000D03*
%TD*%
D11*
%TO.C,C18*%
X6550000Y-48500000D03*
X8450000Y-48500000D03*
%TD*%
D25*
%TO.C,SW5*%
X77850000Y-86100000D03*
X84150000Y-86100000D03*
X77850000Y-89900000D03*
X84150000Y-89900000D03*
%TD*%
D34*
%TO.C,U8*%
X59100000Y-65075000D03*
X59100000Y-65725000D03*
X59100000Y-66375000D03*
X59100000Y-67025000D03*
X59100000Y-67675000D03*
X59100000Y-68325000D03*
X59100000Y-68975000D03*
X59100000Y-69625000D03*
X59100000Y-70275000D03*
X59100000Y-70925000D03*
X64900000Y-70925000D03*
X64900000Y-70275000D03*
X64900000Y-69625000D03*
X64900000Y-68975000D03*
X64900000Y-68325000D03*
X64900000Y-67675000D03*
X64900000Y-67025000D03*
X64900000Y-66375000D03*
X64900000Y-65725000D03*
X64900000Y-65075000D03*
%TD*%
D35*
%TO.C,U9*%
X77600000Y-67600000D03*
X77600000Y-68400000D03*
X78400000Y-67600000D03*
X78400000Y-68400000D03*
D36*
X76562500Y-67250000D03*
X76562500Y-67750000D03*
X76562500Y-68250000D03*
X76562500Y-68750000D03*
D37*
X77250000Y-69437500D03*
X77750000Y-69437500D03*
X78250000Y-69437500D03*
X78750000Y-69437500D03*
D36*
X79437500Y-68750000D03*
X79437500Y-68250000D03*
X79437500Y-67750000D03*
X79437500Y-67250000D03*
D37*
X78750000Y-66562500D03*
X78250000Y-66562500D03*
X77750000Y-66562500D03*
X77250000Y-66562500D03*
%TD*%
D10*
%TO.C,R5*%
X58675000Y-35500000D03*
X60325000Y-35500000D03*
%TD*%
D11*
%TO.C,C15*%
X51050000Y-60000000D03*
X52950000Y-60000000D03*
%TD*%
D10*
%TO.C,R50*%
X68175000Y-31000000D03*
X69825000Y-31000000D03*
%TD*%
%TO.C,R14*%
X95175000Y-52000000D03*
X96825000Y-52000000D03*
%TD*%
D38*
%TO.C,U4*%
X52000000Y-54600000D03*
X52000000Y-55400000D03*
D39*
X51050000Y-54250000D03*
X51050000Y-54750000D03*
X51050000Y-55250000D03*
X51050000Y-55750000D03*
X52950000Y-55750000D03*
X52950000Y-55250000D03*
X52950000Y-54750000D03*
X52950000Y-54250000D03*
%TD*%
D10*
%TO.C,R22*%
X45175000Y-60000000D03*
X46825000Y-60000000D03*
%TD*%
D25*
%TO.C,SW3*%
X49850000Y-86100000D03*
X56150000Y-86100000D03*
X49850000Y-89900000D03*
X56150000Y-89900000D03*
%TD*%
D11*
%TO.C,C16*%
X12550000Y-51000000D03*
X14450000Y-51000000D03*
%TD*%
D10*
%TO.C,R7*%
X52175000Y-75000000D03*
X53825000Y-75000000D03*
%TD*%
%TO.C,R41*%
X45175000Y-81500000D03*
X46825000Y-81500000D03*
%TD*%
%TO.C,R44*%
X33175000Y-83500000D03*
X34825000Y-83500000D03*
%TD*%
D12*
%TO.C,U5*%
X64100000Y-54000000D03*
X64100000Y-54500000D03*
X64100000Y-55000000D03*
X64100000Y-55500000D03*
X64100000Y-56000000D03*
D13*
X65550000Y-56000000D03*
X65550000Y-55500000D03*
D14*
X65350000Y-55000000D03*
D13*
X65550000Y-54500000D03*
X65550000Y-54000000D03*
%TD*%
D11*
%TO.C,C12*%
X67550000Y-58000000D03*
X69450000Y-58000000D03*
%TD*%
%TO.C,C13*%
X73550000Y-54000000D03*
X75450000Y-54000000D03*
%TD*%
D10*
%TO.C,R34*%
X41175000Y-79500000D03*
X42825000Y-79500000D03*
%TD*%
%TO.C,R16*%
X63175000Y-58000000D03*
X64825000Y-58000000D03*
%TD*%
D40*
%TO.C,U3*%
X38687000Y-54150000D03*
D41*
X38975000Y-53900000D03*
D42*
X38612000Y-54607000D03*
X38612000Y-55007000D03*
X38612000Y-55407000D03*
D40*
X38687000Y-55850000D03*
D41*
X38975000Y-56100000D03*
D43*
X39375000Y-56150000D03*
X39775000Y-56150000D03*
D44*
X40175000Y-55950000D03*
X40575000Y-55950000D03*
D41*
X40975000Y-56100000D03*
D45*
X41288000Y-55850000D03*
D46*
X41400000Y-55407000D03*
X41400000Y-55007000D03*
X41400000Y-54607000D03*
D41*
X40975000Y-53900000D03*
D45*
X41288000Y-54150000D03*
D44*
X40575000Y-54050000D03*
X40175000Y-54050000D03*
X39775000Y-54050000D03*
D47*
X39375000Y-53859000D03*
%TD*%
D11*
%TO.C,C11*%
X60550000Y-54000000D03*
X62450000Y-54000000D03*
%TD*%
%TO.C,C30*%
X74050000Y-62000000D03*
X75950000Y-62000000D03*
%TD*%
D48*
%TO.C,L1*%
X63815000Y-50000000D03*
X66185000Y-50000000D03*
%TD*%
D25*
%TO.C,SW1*%
X21850000Y-86100000D03*
X28150000Y-86100000D03*
X21850000Y-89900000D03*
X28150000Y-89900000D03*
%TD*%
D10*
%TO.C,R18*%
X72175000Y-58000000D03*
X73825000Y-58000000D03*
%TD*%
%TO.C,R21*%
X41675000Y-60000000D03*
X43325000Y-60000000D03*
%TD*%
D49*
%TO.C,U7*%
X51800000Y-62700000D03*
X51800000Y-63300000D03*
X52200000Y-62700000D03*
X52200000Y-63300000D03*
D50*
X51012500Y-62250000D03*
X51012500Y-62750000D03*
X51012500Y-63250000D03*
X51012500Y-63750000D03*
X52987500Y-63750000D03*
X52987500Y-63250000D03*
X52987500Y-62750000D03*
X52987500Y-62250000D03*
%TD*%
D10*
%TO.C,R49*%
X64175000Y-31500000D03*
X65825000Y-31500000D03*
%TD*%
%TO.C,R48*%
X60175000Y-31500000D03*
X61825000Y-31500000D03*
%TD*%
D48*
%TO.C,L3*%
X38815000Y-50000000D03*
X41185000Y-50000000D03*
%TD*%
D25*
%TO.C,SW4*%
X63850000Y-86100000D03*
X70150000Y-86100000D03*
X63850000Y-89900000D03*
X70150000Y-89900000D03*
%TD*%
D51*
%TO.C,J1*%
X12355000Y-54800000D03*
X12355000Y-55600000D03*
D52*
X12355000Y-56750000D03*
X12355000Y-57750000D03*
X12355000Y-58250000D03*
X12355000Y-59250000D03*
D51*
X12355000Y-60400000D03*
X12355000Y-61200000D03*
X12355000Y-61200000D03*
X12355000Y-60400000D03*
D52*
X12355000Y-59750000D03*
X12355000Y-58750000D03*
X12355000Y-57250000D03*
X12355000Y-56250000D03*
D51*
X12355000Y-55600000D03*
X12355000Y-54800000D03*
D53*
X11780000Y-53680000D03*
D54*
X7600000Y-53680000D03*
D53*
X11780000Y-62320000D03*
D54*
X7600000Y-62320000D03*
%TD*%
D11*
%TO.C,C26*%
X72550000Y-66000000D03*
X74450000Y-66000000D03*
%TD*%
D10*
%TO.C,R12*%
X68175000Y-75000000D03*
X69825000Y-75000000D03*
%TD*%
%TO.C,R13*%
X93675000Y-57500000D03*
X95325000Y-57500000D03*
%TD*%
%TO.C,R8*%
X55675000Y-75000000D03*
X57325000Y-75000000D03*
%TD*%
D11*
%TO.C,C22*%
X54550000Y-69000000D03*
X56450000Y-69000000D03*
%TD*%
D10*
%TO.C,R9*%
X59175000Y-76000000D03*
X60825000Y-76000000D03*
%TD*%
%TO.C,R51*%
X94175000Y-74000000D03*
X95825000Y-74000000D03*
%TD*%
D15*
%TO.C,C5*%
X67725000Y-54000000D03*
X69275000Y-54000000D03*
%TD*%
D10*
%TO.C,R33*%
X37175000Y-79500000D03*
X38825000Y-79500000D03*
%TD*%
%TO.C,R40*%
X41175000Y-81500000D03*
X42825000Y-81500000D03*
%TD*%
D55*
%TO.C,U11*%
X39137500Y-70425000D03*
X39137500Y-71075000D03*
X39137500Y-71725000D03*
X39137500Y-72375000D03*
X39137500Y-73025000D03*
X39137500Y-73675000D03*
X39137500Y-74325000D03*
X39137500Y-74975000D03*
X39137500Y-75625000D03*
X39137500Y-76275000D03*
X39137500Y-76925000D03*
X39137500Y-77575000D03*
X44862500Y-77575000D03*
X44862500Y-76925000D03*
X44862500Y-76275000D03*
X44862500Y-75625000D03*
X44862500Y-74975000D03*
X44862500Y-74325000D03*
X44862500Y-73675000D03*
X44862500Y-73025000D03*
X44862500Y-72375000D03*
X44862500Y-71725000D03*
X44862500Y-71075000D03*
X44862500Y-70425000D03*
%TD*%
D56*
%TO.C,U1*%
X29100000Y-34560000D03*
X29100000Y-35960000D03*
X29100000Y-37360000D03*
X30500000Y-34560000D03*
X30500000Y-35960000D03*
X30500000Y-37360000D03*
X31900000Y-34560000D03*
X31900000Y-35960000D03*
X31900000Y-37360000D03*
D57*
X23250000Y-28240000D03*
X23250000Y-29510000D03*
X23250000Y-30780000D03*
X23250000Y-32050000D03*
X23250000Y-33320000D03*
X23250000Y-34590000D03*
X23250000Y-35860000D03*
X23250000Y-37130000D03*
X23250000Y-38400000D03*
X23250000Y-39670000D03*
X23250000Y-40940000D03*
X23250000Y-42210000D03*
X23250000Y-43480000D03*
X23250000Y-44750000D03*
D58*
X25015000Y-46000000D03*
X26285000Y-46000000D03*
X27555000Y-46000000D03*
X28825000Y-46000000D03*
X30095000Y-46000000D03*
X31365000Y-46000000D03*
X32635000Y-46000000D03*
X33905000Y-46000000D03*
X35175000Y-46000000D03*
X36445000Y-46000000D03*
X37715000Y-46000000D03*
X38985000Y-46000000D03*
D57*
X40750000Y-44750000D03*
X40750000Y-43480000D03*
X40750000Y-42210000D03*
X40750000Y-40940000D03*
X40750000Y-39670000D03*
X40750000Y-38400000D03*
X40750000Y-37130000D03*
X40750000Y-35860000D03*
X40750000Y-34590000D03*
X40750000Y-33320000D03*
X40750000Y-32050000D03*
X40750000Y-30780000D03*
X40750000Y-29510000D03*
X40750000Y-28240000D03*
%TD*%
D15*
%TO.C,C3*%
X44225000Y-54000000D03*
X45775000Y-54000000D03*
%TD*%
D10*
%TO.C,R26*%
X79175000Y-60500000D03*
X80825000Y-60500000D03*
%TD*%
D11*
%TO.C,C21*%
X58050000Y-63000000D03*
X59950000Y-63000000D03*
%TD*%
%TO.C,C33*%
X94050000Y-64000000D03*
X95950000Y-64000000D03*
%TD*%
D48*
%TO.C,L2*%
X76815000Y-50000000D03*
X79185000Y-50000000D03*
%TD*%
D10*
%TO.C,R35*%
X45175000Y-79500000D03*
X46825000Y-79500000D03*
%TD*%
%TO.C,R38*%
X33175000Y-81500000D03*
X34825000Y-81500000D03*
%TD*%
M02*
