%TF.GenerationSoftware,KiCad,Pcbnew,10.0.5*%
%TF.CreationDate,2026-10-06T09:38:30+05:30*%
%TF.ProjectId,Nightwave-Reference,4e696768-7477-4617-9665-2d5265666572,rev?*%
%TF.SameCoordinates,Original*%
%TF.FileFunction,Legend,Top*%
%TF.FilePolarity,Positive*%
%FSLAX46Y46*%
G04 Gerber Fmt 4.6, Leading zero omitted, Abs format (unit mm)*
G04 Created by KiCad (PCBNEW 10.0.5) date 2026-10-06 09:38:30*
%MOMM*%
%LPD*%
G01*
G04 APERTURE LIST*
%ADD10C,0.120000*%
G04 APERTURE END LIST*
D10*
X10152381Y-77563855D02*
X10152381Y-76763855D01*
X10152381Y-76763855D02*
X10457143Y-76763855D01*
X10457143Y-76763855D02*
X10533333Y-76801950D01*
X10533333Y-76801950D02*
X10571428Y-76840045D01*
X10571428Y-76840045D02*
X10609524Y-76916236D01*
X10609524Y-76916236D02*
X10609524Y-77030521D01*
X10609524Y-77030521D02*
X10571428Y-77106712D01*
X10571428Y-77106712D02*
X10533333Y-77144807D01*
X10533333Y-77144807D02*
X10457143Y-77182902D01*
X10457143Y-77182902D02*
X10152381Y-77182902D01*
X11104762Y-76763855D02*
X11257143Y-76763855D01*
X11257143Y-76763855D02*
X11333333Y-76801950D01*
X11333333Y-76801950D02*
X11409524Y-76878140D01*
X11409524Y-76878140D02*
X11447619Y-77030521D01*
X11447619Y-77030521D02*
X11447619Y-77297188D01*
X11447619Y-77297188D02*
X11409524Y-77449569D01*
X11409524Y-77449569D02*
X11333333Y-77525760D01*
X11333333Y-77525760D02*
X11257143Y-77563855D01*
X11257143Y-77563855D02*
X11104762Y-77563855D01*
X11104762Y-77563855D02*
X11028571Y-77525760D01*
X11028571Y-77525760D02*
X10952381Y-77449569D01*
X10952381Y-77449569D02*
X10914285Y-77297188D01*
X10914285Y-77297188D02*
X10914285Y-77030521D01*
X10914285Y-77030521D02*
X10952381Y-76878140D01*
X10952381Y-76878140D02*
X11028571Y-76801950D01*
X11028571Y-76801950D02*
X11104762Y-76763855D01*
X11714285Y-76763855D02*
X11904761Y-77563855D01*
X11904761Y-77563855D02*
X12057142Y-76992426D01*
X12057142Y-76992426D02*
X12209523Y-77563855D01*
X12209523Y-77563855D02*
X12400000Y-76763855D01*
X12704762Y-77144807D02*
X12971428Y-77144807D01*
X13085714Y-77563855D02*
X12704762Y-77563855D01*
X12704762Y-77563855D02*
X12704762Y-76763855D01*
X12704762Y-76763855D02*
X13085714Y-76763855D01*
X13885715Y-77563855D02*
X13619048Y-77182902D01*
X13428572Y-77563855D02*
X13428572Y-76763855D01*
X13428572Y-76763855D02*
X13733334Y-76763855D01*
X13733334Y-76763855D02*
X13809524Y-76801950D01*
X13809524Y-76801950D02*
X13847619Y-76840045D01*
X13847619Y-76840045D02*
X13885715Y-76916236D01*
X13885715Y-76916236D02*
X13885715Y-77030521D01*
X13885715Y-77030521D02*
X13847619Y-77106712D01*
X13847619Y-77106712D02*
X13809524Y-77144807D01*
X13809524Y-77144807D02*
X13733334Y-77182902D01*
X13733334Y-77182902D02*
X13428572Y-77182902D01*
X14614285Y-45063855D02*
X15071428Y-45063855D01*
X14842856Y-45863855D02*
X14842856Y-45063855D01*
X15604761Y-45444807D02*
X15338095Y-45444807D01*
X15338095Y-45863855D02*
X15338095Y-45063855D01*
X15338095Y-45063855D02*
X15719047Y-45063855D01*
X15909523Y-45063855D02*
X16366666Y-45063855D01*
X16138094Y-45863855D02*
X16138094Y-45063855D01*
X17242857Y-45863855D02*
X17242857Y-45063855D01*
X17242857Y-45444807D02*
X17700000Y-45444807D01*
X17700000Y-45863855D02*
X17700000Y-45063855D01*
X18042856Y-45635283D02*
X18423809Y-45635283D01*
X17966666Y-45863855D02*
X18233333Y-45063855D01*
X18233333Y-45063855D02*
X18499999Y-45863855D01*
X19223809Y-45863855D02*
X18957142Y-45482902D01*
X18766666Y-45863855D02*
X18766666Y-45063855D01*
X18766666Y-45063855D02*
X19071428Y-45063855D01*
X19071428Y-45063855D02*
X19147618Y-45101950D01*
X19147618Y-45101950D02*
X19185713Y-45140045D01*
X19185713Y-45140045D02*
X19223809Y-45216236D01*
X19223809Y-45216236D02*
X19223809Y-45330521D01*
X19223809Y-45330521D02*
X19185713Y-45406712D01*
X19185713Y-45406712D02*
X19147618Y-45444807D01*
X19147618Y-45444807D02*
X19071428Y-45482902D01*
X19071428Y-45482902D02*
X18766666Y-45482902D01*
X19566666Y-45863855D02*
X19566666Y-45063855D01*
X19566666Y-45063855D02*
X20023809Y-45863855D01*
X20023809Y-45863855D02*
X20023809Y-45063855D01*
X20404761Y-45444807D02*
X20671427Y-45444807D01*
X20785713Y-45863855D02*
X20404761Y-45863855D01*
X20404761Y-45863855D02*
X20404761Y-45063855D01*
X20404761Y-45063855D02*
X20785713Y-45063855D01*
X21090475Y-45825760D02*
X21204761Y-45863855D01*
X21204761Y-45863855D02*
X21395237Y-45863855D01*
X21395237Y-45863855D02*
X21471428Y-45825760D01*
X21471428Y-45825760D02*
X21509523Y-45787664D01*
X21509523Y-45787664D02*
X21547618Y-45711474D01*
X21547618Y-45711474D02*
X21547618Y-45635283D01*
X21547618Y-45635283D02*
X21509523Y-45559093D01*
X21509523Y-45559093D02*
X21471428Y-45520998D01*
X21471428Y-45520998D02*
X21395237Y-45482902D01*
X21395237Y-45482902D02*
X21242856Y-45444807D01*
X21242856Y-45444807D02*
X21166666Y-45406712D01*
X21166666Y-45406712D02*
X21128571Y-45368617D01*
X21128571Y-45368617D02*
X21090475Y-45292426D01*
X21090475Y-45292426D02*
X21090475Y-45216236D01*
X21090475Y-45216236D02*
X21128571Y-45140045D01*
X21128571Y-45140045D02*
X21166666Y-45101950D01*
X21166666Y-45101950D02*
X21242856Y-45063855D01*
X21242856Y-45063855D02*
X21433333Y-45063855D01*
X21433333Y-45063855D02*
X21547618Y-45101950D01*
X21852380Y-45825760D02*
X21966666Y-45863855D01*
X21966666Y-45863855D02*
X22157142Y-45863855D01*
X22157142Y-45863855D02*
X22233333Y-45825760D01*
X22233333Y-45825760D02*
X22271428Y-45787664D01*
X22271428Y-45787664D02*
X22309523Y-45711474D01*
X22309523Y-45711474D02*
X22309523Y-45635283D01*
X22309523Y-45635283D02*
X22271428Y-45559093D01*
X22271428Y-45559093D02*
X22233333Y-45520998D01*
X22233333Y-45520998D02*
X22157142Y-45482902D01*
X22157142Y-45482902D02*
X22004761Y-45444807D01*
X22004761Y-45444807D02*
X21928571Y-45406712D01*
X21928571Y-45406712D02*
X21890476Y-45368617D01*
X21890476Y-45368617D02*
X21852380Y-45292426D01*
X21852380Y-45292426D02*
X21852380Y-45216236D01*
X21852380Y-45216236D02*
X21890476Y-45140045D01*
X21890476Y-45140045D02*
X21928571Y-45101950D01*
X21928571Y-45101950D02*
X22004761Y-45063855D01*
X22004761Y-45063855D02*
X22195238Y-45063855D01*
X22195238Y-45063855D02*
X22309523Y-45101950D01*
X23685714Y-92363855D02*
X23685714Y-91563855D01*
X23685714Y-91563855D02*
X23990476Y-91563855D01*
X23990476Y-91563855D02*
X24066666Y-91601950D01*
X24066666Y-91601950D02*
X24104761Y-91640045D01*
X24104761Y-91640045D02*
X24142857Y-91716236D01*
X24142857Y-91716236D02*
X24142857Y-91830521D01*
X24142857Y-91830521D02*
X24104761Y-91906712D01*
X24104761Y-91906712D02*
X24066666Y-91944807D01*
X24066666Y-91944807D02*
X23990476Y-91982902D01*
X23990476Y-91982902D02*
X23685714Y-91982902D01*
X24942857Y-92363855D02*
X24676190Y-91982902D01*
X24485714Y-92363855D02*
X24485714Y-91563855D01*
X24485714Y-91563855D02*
X24790476Y-91563855D01*
X24790476Y-91563855D02*
X24866666Y-91601950D01*
X24866666Y-91601950D02*
X24904761Y-91640045D01*
X24904761Y-91640045D02*
X24942857Y-91716236D01*
X24942857Y-91716236D02*
X24942857Y-91830521D01*
X24942857Y-91830521D02*
X24904761Y-91906712D01*
X24904761Y-91906712D02*
X24866666Y-91944807D01*
X24866666Y-91944807D02*
X24790476Y-91982902D01*
X24790476Y-91982902D02*
X24485714Y-91982902D01*
X25285714Y-91944807D02*
X25552380Y-91944807D01*
X25666666Y-92363855D02*
X25285714Y-92363855D01*
X25285714Y-92363855D02*
X25285714Y-91563855D01*
X25285714Y-91563855D02*
X25666666Y-91563855D01*
X25895238Y-91563855D02*
X26161905Y-92363855D01*
X26161905Y-92363855D02*
X26428571Y-91563855D01*
X37780953Y-92363855D02*
X37780953Y-91563855D01*
X37780953Y-91563855D02*
X38085715Y-91563855D01*
X38085715Y-91563855D02*
X38161905Y-91601950D01*
X38161905Y-91601950D02*
X38200000Y-91640045D01*
X38200000Y-91640045D02*
X38238096Y-91716236D01*
X38238096Y-91716236D02*
X38238096Y-91830521D01*
X38238096Y-91830521D02*
X38200000Y-91906712D01*
X38200000Y-91906712D02*
X38161905Y-91944807D01*
X38161905Y-91944807D02*
X38085715Y-91982902D01*
X38085715Y-91982902D02*
X37780953Y-91982902D01*
X38961905Y-92363855D02*
X38580953Y-92363855D01*
X38580953Y-92363855D02*
X38580953Y-91563855D01*
X39190476Y-92135283D02*
X39571429Y-92135283D01*
X39114286Y-92363855D02*
X39380953Y-91563855D01*
X39380953Y-91563855D02*
X39647619Y-92363855D01*
X40066667Y-91982902D02*
X40066667Y-92363855D01*
X39800000Y-91563855D02*
X40066667Y-91982902D01*
X40066667Y-91982902D02*
X40333333Y-91563855D01*
X51723809Y-92363855D02*
X51723809Y-91563855D01*
X51723809Y-91563855D02*
X52180952Y-92363855D01*
X52180952Y-92363855D02*
X52180952Y-91563855D01*
X52561904Y-91944807D02*
X52828570Y-91944807D01*
X52942856Y-92363855D02*
X52561904Y-92363855D01*
X52561904Y-92363855D02*
X52561904Y-91563855D01*
X52561904Y-91563855D02*
X52942856Y-91563855D01*
X53209523Y-91563855D02*
X53742857Y-92363855D01*
X53742857Y-91563855D02*
X53209523Y-92363855D01*
X53933333Y-91563855D02*
X54390476Y-91563855D01*
X54161904Y-92363855D02*
X54161904Y-91563855D01*
X52428572Y-45135283D02*
X52809525Y-45135283D01*
X52352382Y-45363855D02*
X52619049Y-44563855D01*
X52619049Y-44563855D02*
X52885715Y-45363855D01*
X53152382Y-45363855D02*
X53152382Y-44563855D01*
X54600001Y-45363855D02*
X54333334Y-44982902D01*
X54142858Y-45363855D02*
X54142858Y-44563855D01*
X54142858Y-44563855D02*
X54447620Y-44563855D01*
X54447620Y-44563855D02*
X54523810Y-44601950D01*
X54523810Y-44601950D02*
X54561905Y-44640045D01*
X54561905Y-44640045D02*
X54600001Y-44716236D01*
X54600001Y-44716236D02*
X54600001Y-44830521D01*
X54600001Y-44830521D02*
X54561905Y-44906712D01*
X54561905Y-44906712D02*
X54523810Y-44944807D01*
X54523810Y-44944807D02*
X54447620Y-44982902D01*
X54447620Y-44982902D02*
X54142858Y-44982902D01*
X54942858Y-44944807D02*
X55209524Y-44944807D01*
X55323810Y-45363855D02*
X54942858Y-45363855D01*
X54942858Y-45363855D02*
X54942858Y-44563855D01*
X54942858Y-44563855D02*
X55323810Y-44563855D01*
X55552382Y-44563855D02*
X55819049Y-45363855D01*
X55819049Y-45363855D02*
X56085715Y-44563855D01*
X56352382Y-45363855D02*
X56352382Y-44563855D01*
X56733334Y-44944807D02*
X57000000Y-44944807D01*
X57114286Y-45363855D02*
X56733334Y-45363855D01*
X56733334Y-45363855D02*
X56733334Y-44563855D01*
X56733334Y-44563855D02*
X57114286Y-44563855D01*
X57380953Y-44563855D02*
X57571429Y-45363855D01*
X57571429Y-45363855D02*
X57723810Y-44792426D01*
X57723810Y-44792426D02*
X57876191Y-45363855D01*
X57876191Y-45363855D02*
X58066668Y-44563855D01*
X58980954Y-45059093D02*
X59590478Y-45059093D01*
X60580954Y-45363855D02*
X60580954Y-44563855D01*
X60580954Y-44563855D02*
X61038097Y-45363855D01*
X61038097Y-45363855D02*
X61038097Y-44563855D01*
X61571430Y-44563855D02*
X61723811Y-44563855D01*
X61723811Y-44563855D02*
X61800001Y-44601950D01*
X61800001Y-44601950D02*
X61876192Y-44678140D01*
X61876192Y-44678140D02*
X61914287Y-44830521D01*
X61914287Y-44830521D02*
X61914287Y-45097188D01*
X61914287Y-45097188D02*
X61876192Y-45249569D01*
X61876192Y-45249569D02*
X61800001Y-45325760D01*
X61800001Y-45325760D02*
X61723811Y-45363855D01*
X61723811Y-45363855D02*
X61571430Y-45363855D01*
X61571430Y-45363855D02*
X61495239Y-45325760D01*
X61495239Y-45325760D02*
X61419049Y-45249569D01*
X61419049Y-45249569D02*
X61380953Y-45097188D01*
X61380953Y-45097188D02*
X61380953Y-44830521D01*
X61380953Y-44830521D02*
X61419049Y-44678140D01*
X61419049Y-44678140D02*
X61495239Y-44601950D01*
X61495239Y-44601950D02*
X61571430Y-44563855D01*
X62142858Y-44563855D02*
X62600001Y-44563855D01*
X62371429Y-45363855D02*
X62371429Y-44563855D01*
X63742858Y-44944807D02*
X63476192Y-44944807D01*
X63476192Y-45363855D02*
X63476192Y-44563855D01*
X63476192Y-44563855D02*
X63857144Y-44563855D01*
X64314287Y-44563855D02*
X64466668Y-44563855D01*
X64466668Y-44563855D02*
X64542858Y-44601950D01*
X64542858Y-44601950D02*
X64619049Y-44678140D01*
X64619049Y-44678140D02*
X64657144Y-44830521D01*
X64657144Y-44830521D02*
X64657144Y-45097188D01*
X64657144Y-45097188D02*
X64619049Y-45249569D01*
X64619049Y-45249569D02*
X64542858Y-45325760D01*
X64542858Y-45325760D02*
X64466668Y-45363855D01*
X64466668Y-45363855D02*
X64314287Y-45363855D01*
X64314287Y-45363855D02*
X64238096Y-45325760D01*
X64238096Y-45325760D02*
X64161906Y-45249569D01*
X64161906Y-45249569D02*
X64123810Y-45097188D01*
X64123810Y-45097188D02*
X64123810Y-44830521D01*
X64123810Y-44830521D02*
X64161906Y-44678140D01*
X64161906Y-44678140D02*
X64238096Y-44601950D01*
X64238096Y-44601950D02*
X64314287Y-44563855D01*
X65457144Y-45363855D02*
X65190477Y-44982902D01*
X65000001Y-45363855D02*
X65000001Y-44563855D01*
X65000001Y-44563855D02*
X65304763Y-44563855D01*
X65304763Y-44563855D02*
X65380953Y-44601950D01*
X65380953Y-44601950D02*
X65419048Y-44640045D01*
X65419048Y-44640045D02*
X65457144Y-44716236D01*
X65457144Y-44716236D02*
X65457144Y-44830521D01*
X65457144Y-44830521D02*
X65419048Y-44906712D01*
X65419048Y-44906712D02*
X65380953Y-44944807D01*
X65380953Y-44944807D02*
X65304763Y-44982902D01*
X65304763Y-44982902D02*
X65000001Y-44982902D01*
X66676191Y-44944807D02*
X66409525Y-44944807D01*
X66409525Y-45363855D02*
X66409525Y-44563855D01*
X66409525Y-44563855D02*
X66790477Y-44563855D01*
X67057143Y-45135283D02*
X67438096Y-45135283D01*
X66980953Y-45363855D02*
X67247620Y-44563855D01*
X67247620Y-44563855D02*
X67514286Y-45363855D01*
X68047619Y-44944807D02*
X68161905Y-44982902D01*
X68161905Y-44982902D02*
X68200000Y-45020998D01*
X68200000Y-45020998D02*
X68238096Y-45097188D01*
X68238096Y-45097188D02*
X68238096Y-45211474D01*
X68238096Y-45211474D02*
X68200000Y-45287664D01*
X68200000Y-45287664D02*
X68161905Y-45325760D01*
X68161905Y-45325760D02*
X68085715Y-45363855D01*
X68085715Y-45363855D02*
X67780953Y-45363855D01*
X67780953Y-45363855D02*
X67780953Y-44563855D01*
X67780953Y-44563855D02*
X68047619Y-44563855D01*
X68047619Y-44563855D02*
X68123810Y-44601950D01*
X68123810Y-44601950D02*
X68161905Y-44640045D01*
X68161905Y-44640045D02*
X68200000Y-44716236D01*
X68200000Y-44716236D02*
X68200000Y-44792426D01*
X68200000Y-44792426D02*
X68161905Y-44868617D01*
X68161905Y-44868617D02*
X68123810Y-44906712D01*
X68123810Y-44906712D02*
X68047619Y-44944807D01*
X68047619Y-44944807D02*
X67780953Y-44944807D01*
X69038096Y-45363855D02*
X68771429Y-44982902D01*
X68580953Y-45363855D02*
X68580953Y-44563855D01*
X68580953Y-44563855D02*
X68885715Y-44563855D01*
X68885715Y-44563855D02*
X68961905Y-44601950D01*
X68961905Y-44601950D02*
X69000000Y-44640045D01*
X69000000Y-44640045D02*
X69038096Y-44716236D01*
X69038096Y-44716236D02*
X69038096Y-44830521D01*
X69038096Y-44830521D02*
X69000000Y-44906712D01*
X69000000Y-44906712D02*
X68961905Y-44944807D01*
X68961905Y-44944807D02*
X68885715Y-44982902D01*
X68885715Y-44982902D02*
X68580953Y-44982902D01*
X69380953Y-45363855D02*
X69380953Y-44563855D01*
X70219048Y-45287664D02*
X70180952Y-45325760D01*
X70180952Y-45325760D02*
X70066667Y-45363855D01*
X70066667Y-45363855D02*
X69990476Y-45363855D01*
X69990476Y-45363855D02*
X69876190Y-45325760D01*
X69876190Y-45325760D02*
X69800000Y-45249569D01*
X69800000Y-45249569D02*
X69761905Y-45173379D01*
X69761905Y-45173379D02*
X69723809Y-45020998D01*
X69723809Y-45020998D02*
X69723809Y-44906712D01*
X69723809Y-44906712D02*
X69761905Y-44754331D01*
X69761905Y-44754331D02*
X69800000Y-44678140D01*
X69800000Y-44678140D02*
X69876190Y-44601950D01*
X69876190Y-44601950D02*
X69990476Y-44563855D01*
X69990476Y-44563855D02*
X70066667Y-44563855D01*
X70066667Y-44563855D02*
X70180952Y-44601950D01*
X70180952Y-44601950D02*
X70219048Y-44640045D01*
X70523809Y-45135283D02*
X70904762Y-45135283D01*
X70447619Y-45363855D02*
X70714286Y-44563855D01*
X70714286Y-44563855D02*
X70980952Y-45363855D01*
X71133333Y-44563855D02*
X71590476Y-44563855D01*
X71361904Y-45363855D02*
X71361904Y-44563855D01*
X71857143Y-45363855D02*
X71857143Y-44563855D01*
X72390476Y-44563855D02*
X72542857Y-44563855D01*
X72542857Y-44563855D02*
X72619047Y-44601950D01*
X72619047Y-44601950D02*
X72695238Y-44678140D01*
X72695238Y-44678140D02*
X72733333Y-44830521D01*
X72733333Y-44830521D02*
X72733333Y-45097188D01*
X72733333Y-45097188D02*
X72695238Y-45249569D01*
X72695238Y-45249569D02*
X72619047Y-45325760D01*
X72619047Y-45325760D02*
X72542857Y-45363855D01*
X72542857Y-45363855D02*
X72390476Y-45363855D01*
X72390476Y-45363855D02*
X72314285Y-45325760D01*
X72314285Y-45325760D02*
X72238095Y-45249569D01*
X72238095Y-45249569D02*
X72199999Y-45097188D01*
X72199999Y-45097188D02*
X72199999Y-44830521D01*
X72199999Y-44830521D02*
X72238095Y-44678140D01*
X72238095Y-44678140D02*
X72314285Y-44601950D01*
X72314285Y-44601950D02*
X72390476Y-44563855D01*
X73076190Y-45363855D02*
X73076190Y-44563855D01*
X73076190Y-44563855D02*
X73533333Y-45363855D01*
X73533333Y-45363855D02*
X73533333Y-44563855D01*
X65495238Y-91563855D02*
X65761905Y-92363855D01*
X65761905Y-92363855D02*
X66028571Y-91563855D01*
X66447619Y-91563855D02*
X66600000Y-91563855D01*
X66600000Y-91563855D02*
X66676190Y-91601950D01*
X66676190Y-91601950D02*
X66752381Y-91678140D01*
X66752381Y-91678140D02*
X66790476Y-91830521D01*
X66790476Y-91830521D02*
X66790476Y-92097188D01*
X66790476Y-92097188D02*
X66752381Y-92249569D01*
X66752381Y-92249569D02*
X66676190Y-92325760D01*
X66676190Y-92325760D02*
X66600000Y-92363855D01*
X66600000Y-92363855D02*
X66447619Y-92363855D01*
X66447619Y-92363855D02*
X66371428Y-92325760D01*
X66371428Y-92325760D02*
X66295238Y-92249569D01*
X66295238Y-92249569D02*
X66257142Y-92097188D01*
X66257142Y-92097188D02*
X66257142Y-91830521D01*
X66257142Y-91830521D02*
X66295238Y-91678140D01*
X66295238Y-91678140D02*
X66371428Y-91601950D01*
X66371428Y-91601950D02*
X66447619Y-91563855D01*
X67514285Y-92363855D02*
X67133333Y-92363855D01*
X67133333Y-92363855D02*
X67133333Y-91563855D01*
X67780952Y-92059093D02*
X68390476Y-92059093D01*
X79495238Y-91563855D02*
X79761905Y-92363855D01*
X79761905Y-92363855D02*
X80028571Y-91563855D01*
X80447619Y-91563855D02*
X80600000Y-91563855D01*
X80600000Y-91563855D02*
X80676190Y-91601950D01*
X80676190Y-91601950D02*
X80752381Y-91678140D01*
X80752381Y-91678140D02*
X80790476Y-91830521D01*
X80790476Y-91830521D02*
X80790476Y-92097188D01*
X80790476Y-92097188D02*
X80752381Y-92249569D01*
X80752381Y-92249569D02*
X80676190Y-92325760D01*
X80676190Y-92325760D02*
X80600000Y-92363855D01*
X80600000Y-92363855D02*
X80447619Y-92363855D01*
X80447619Y-92363855D02*
X80371428Y-92325760D01*
X80371428Y-92325760D02*
X80295238Y-92249569D01*
X80295238Y-92249569D02*
X80257142Y-92097188D01*
X80257142Y-92097188D02*
X80257142Y-91830521D01*
X80257142Y-91830521D02*
X80295238Y-91678140D01*
X80295238Y-91678140D02*
X80371428Y-91601950D01*
X80371428Y-91601950D02*
X80447619Y-91563855D01*
X81514285Y-92363855D02*
X81133333Y-92363855D01*
X81133333Y-92363855D02*
X81133333Y-91563855D01*
X81780952Y-92059093D02*
X82390476Y-92059093D01*
X82085714Y-92363855D02*
X82085714Y-91754331D01*
X87695238Y-41259093D02*
X88304762Y-41259093D01*
X88000000Y-41563855D02*
X88000000Y-40954331D01*
X89695238Y-41259093D02*
X90304762Y-41259093D01*
X104476189Y-84444807D02*
X104590475Y-84482902D01*
X104590475Y-84482902D02*
X104628570Y-84520998D01*
X104628570Y-84520998D02*
X104666666Y-84597188D01*
X104666666Y-84597188D02*
X104666666Y-84711474D01*
X104666666Y-84711474D02*
X104628570Y-84787664D01*
X104628570Y-84787664D02*
X104590475Y-84825760D01*
X104590475Y-84825760D02*
X104514285Y-84863855D01*
X104514285Y-84863855D02*
X104209523Y-84863855D01*
X104209523Y-84863855D02*
X104209523Y-84063855D01*
X104209523Y-84063855D02*
X104476189Y-84063855D01*
X104476189Y-84063855D02*
X104552380Y-84101950D01*
X104552380Y-84101950D02*
X104590475Y-84140045D01*
X104590475Y-84140045D02*
X104628570Y-84216236D01*
X104628570Y-84216236D02*
X104628570Y-84292426D01*
X104628570Y-84292426D02*
X104590475Y-84368617D01*
X104590475Y-84368617D02*
X104552380Y-84406712D01*
X104552380Y-84406712D02*
X104476189Y-84444807D01*
X104476189Y-84444807D02*
X104209523Y-84444807D01*
X104895237Y-84063855D02*
X105352380Y-84063855D01*
X105123808Y-84863855D02*
X105123808Y-84063855D01*
X105999999Y-84863855D02*
X105619047Y-84863855D01*
X105619047Y-84863855D02*
X105619047Y-84063855D01*
X106838094Y-84825760D02*
X106952380Y-84863855D01*
X106952380Y-84863855D02*
X107142856Y-84863855D01*
X107142856Y-84863855D02*
X107219047Y-84825760D01*
X107219047Y-84825760D02*
X107257142Y-84787664D01*
X107257142Y-84787664D02*
X107295237Y-84711474D01*
X107295237Y-84711474D02*
X107295237Y-84635283D01*
X107295237Y-84635283D02*
X107257142Y-84559093D01*
X107257142Y-84559093D02*
X107219047Y-84520998D01*
X107219047Y-84520998D02*
X107142856Y-84482902D01*
X107142856Y-84482902D02*
X106990475Y-84444807D01*
X106990475Y-84444807D02*
X106914285Y-84406712D01*
X106914285Y-84406712D02*
X106876190Y-84368617D01*
X106876190Y-84368617D02*
X106838094Y-84292426D01*
X106838094Y-84292426D02*
X106838094Y-84216236D01*
X106838094Y-84216236D02*
X106876190Y-84140045D01*
X106876190Y-84140045D02*
X106914285Y-84101950D01*
X106914285Y-84101950D02*
X106990475Y-84063855D01*
X106990475Y-84063855D02*
X107180952Y-84063855D01*
X107180952Y-84063855D02*
X107295237Y-84101950D01*
X107638095Y-84863855D02*
X107638095Y-84063855D01*
X107638095Y-84063855D02*
X107942857Y-84063855D01*
X107942857Y-84063855D02*
X108019047Y-84101950D01*
X108019047Y-84101950D02*
X108057142Y-84140045D01*
X108057142Y-84140045D02*
X108095238Y-84216236D01*
X108095238Y-84216236D02*
X108095238Y-84330521D01*
X108095238Y-84330521D02*
X108057142Y-84406712D01*
X108057142Y-84406712D02*
X108019047Y-84444807D01*
X108019047Y-84444807D02*
X107942857Y-84482902D01*
X107942857Y-84482902D02*
X107638095Y-84482902D01*
X108438095Y-84444807D02*
X108704761Y-84444807D01*
X108819047Y-84863855D02*
X108438095Y-84863855D01*
X108438095Y-84863855D02*
X108438095Y-84063855D01*
X108438095Y-84063855D02*
X108819047Y-84063855D01*
X109123809Y-84635283D02*
X109504762Y-84635283D01*
X109047619Y-84863855D02*
X109314286Y-84063855D01*
X109314286Y-84063855D02*
X109580952Y-84863855D01*
X109847619Y-84863855D02*
X109847619Y-84063855D01*
X110304762Y-84863855D02*
X109961904Y-84406712D01*
X110304762Y-84063855D02*
X109847619Y-84520998D01*
X110647619Y-84444807D02*
X110914285Y-84444807D01*
X111028571Y-84863855D02*
X110647619Y-84863855D01*
X110647619Y-84863855D02*
X110647619Y-84063855D01*
X110647619Y-84063855D02*
X111028571Y-84063855D01*
X111828572Y-84863855D02*
X111561905Y-84482902D01*
X111371429Y-84863855D02*
X111371429Y-84063855D01*
X111371429Y-84063855D02*
X111676191Y-84063855D01*
X111676191Y-84063855D02*
X111752381Y-84101950D01*
X111752381Y-84101950D02*
X111790476Y-84140045D01*
X111790476Y-84140045D02*
X111828572Y-84216236D01*
X111828572Y-84216236D02*
X111828572Y-84330521D01*
X111828572Y-84330521D02*
X111790476Y-84406712D01*
X111790476Y-84406712D02*
X111752381Y-84444807D01*
X111752381Y-84444807D02*
X111676191Y-84482902D01*
X111676191Y-84482902D02*
X111371429Y-84482902D01*
X85549999Y-50438688D02*
X85678571Y-50481545D01*
X85678571Y-50481545D02*
X85721428Y-50524402D01*
X85721428Y-50524402D02*
X85764285Y-50610117D01*
X85764285Y-50610117D02*
X85764285Y-50738688D01*
X85764285Y-50738688D02*
X85721428Y-50824402D01*
X85721428Y-50824402D02*
X85678571Y-50867260D01*
X85678571Y-50867260D02*
X85592856Y-50910117D01*
X85592856Y-50910117D02*
X85249999Y-50910117D01*
X85249999Y-50910117D02*
X85249999Y-50010117D01*
X85249999Y-50010117D02*
X85549999Y-50010117D01*
X85549999Y-50010117D02*
X85635714Y-50052974D01*
X85635714Y-50052974D02*
X85678571Y-50095831D01*
X85678571Y-50095831D02*
X85721428Y-50181545D01*
X85721428Y-50181545D02*
X85721428Y-50267260D01*
X85721428Y-50267260D02*
X85678571Y-50352974D01*
X85678571Y-50352974D02*
X85635714Y-50395831D01*
X85635714Y-50395831D02*
X85549999Y-50438688D01*
X85549999Y-50438688D02*
X85249999Y-50438688D01*
X86107142Y-50652974D02*
X86535714Y-50652974D01*
X86021428Y-50910117D02*
X86321428Y-50010117D01*
X86321428Y-50010117D02*
X86621428Y-50910117D01*
X86792857Y-50010117D02*
X87307143Y-50010117D01*
X87050000Y-50910117D02*
X87050000Y-50010117D01*
X87478571Y-50010117D02*
X87992857Y-50010117D01*
X87735714Y-50910117D02*
X87735714Y-50010117D01*
X88292856Y-50438688D02*
X88592856Y-50438688D01*
X88721428Y-50910117D02*
X88292856Y-50910117D01*
X88292856Y-50910117D02*
X88292856Y-50010117D01*
X88292856Y-50010117D02*
X88721428Y-50010117D01*
X89621428Y-50910117D02*
X89321428Y-50481545D01*
X89107142Y-50910117D02*
X89107142Y-50010117D01*
X89107142Y-50010117D02*
X89449999Y-50010117D01*
X89449999Y-50010117D02*
X89535714Y-50052974D01*
X89535714Y-50052974D02*
X89578571Y-50095831D01*
X89578571Y-50095831D02*
X89621428Y-50181545D01*
X89621428Y-50181545D02*
X89621428Y-50310117D01*
X89621428Y-50310117D02*
X89578571Y-50395831D01*
X89578571Y-50395831D02*
X89535714Y-50438688D01*
X89535714Y-50438688D02*
X89449999Y-50481545D01*
X89449999Y-50481545D02*
X89107142Y-50481545D01*
X90178571Y-50481545D02*
X90178571Y-50910117D01*
X89878571Y-50010117D02*
X90178571Y-50481545D01*
X90178571Y-50481545D02*
X90478571Y-50010117D01*
X91935714Y-50910117D02*
X91421428Y-50910117D01*
X91678571Y-50910117D02*
X91678571Y-50010117D01*
X91678571Y-50010117D02*
X91592857Y-50138688D01*
X91592857Y-50138688D02*
X91507142Y-50224402D01*
X91507142Y-50224402D02*
X91421428Y-50267260D01*
X92278571Y-50867260D02*
X92407143Y-50910117D01*
X92407143Y-50910117D02*
X92621428Y-50910117D01*
X92621428Y-50910117D02*
X92707143Y-50867260D01*
X92707143Y-50867260D02*
X92750000Y-50824402D01*
X92750000Y-50824402D02*
X92792857Y-50738688D01*
X92792857Y-50738688D02*
X92792857Y-50652974D01*
X92792857Y-50652974D02*
X92750000Y-50567260D01*
X92750000Y-50567260D02*
X92707143Y-50524402D01*
X92707143Y-50524402D02*
X92621428Y-50481545D01*
X92621428Y-50481545D02*
X92450000Y-50438688D01*
X92450000Y-50438688D02*
X92364285Y-50395831D01*
X92364285Y-50395831D02*
X92321428Y-50352974D01*
X92321428Y-50352974D02*
X92278571Y-50267260D01*
X92278571Y-50267260D02*
X92278571Y-50181545D01*
X92278571Y-50181545D02*
X92321428Y-50095831D01*
X92321428Y-50095831D02*
X92364285Y-50052974D01*
X92364285Y-50052974D02*
X92450000Y-50010117D01*
X92450000Y-50010117D02*
X92664285Y-50010117D01*
X92664285Y-50010117D02*
X92792857Y-50052974D01*
X85871428Y-61910117D02*
X85871428Y-61010117D01*
X85871428Y-61010117D02*
X86214285Y-61010117D01*
X86214285Y-61010117D02*
X86300000Y-61052974D01*
X86300000Y-61052974D02*
X86342857Y-61095831D01*
X86342857Y-61095831D02*
X86385714Y-61181545D01*
X86385714Y-61181545D02*
X86385714Y-61310117D01*
X86385714Y-61310117D02*
X86342857Y-61395831D01*
X86342857Y-61395831D02*
X86300000Y-61438688D01*
X86300000Y-61438688D02*
X86214285Y-61481545D01*
X86214285Y-61481545D02*
X85871428Y-61481545D01*
X86728571Y-61652974D02*
X87157143Y-61652974D01*
X86642857Y-61910117D02*
X86942857Y-61010117D01*
X86942857Y-61010117D02*
X87242857Y-61910117D01*
X88057143Y-61824402D02*
X88014286Y-61867260D01*
X88014286Y-61867260D02*
X87885714Y-61910117D01*
X87885714Y-61910117D02*
X87800000Y-61910117D01*
X87800000Y-61910117D02*
X87671429Y-61867260D01*
X87671429Y-61867260D02*
X87585714Y-61781545D01*
X87585714Y-61781545D02*
X87542857Y-61695831D01*
X87542857Y-61695831D02*
X87500000Y-61524402D01*
X87500000Y-61524402D02*
X87500000Y-61395831D01*
X87500000Y-61395831D02*
X87542857Y-61224402D01*
X87542857Y-61224402D02*
X87585714Y-61138688D01*
X87585714Y-61138688D02*
X87671429Y-61052974D01*
X87671429Y-61052974D02*
X87800000Y-61010117D01*
X87800000Y-61010117D02*
X87885714Y-61010117D01*
X87885714Y-61010117D02*
X88014286Y-61052974D01*
X88014286Y-61052974D02*
X88057143Y-61095831D01*
X88442857Y-61910117D02*
X88442857Y-61010117D01*
X88957143Y-61910117D02*
X88571429Y-61395831D01*
X88957143Y-61010117D02*
X88442857Y-61524402D01*
X90028571Y-61910117D02*
X90028571Y-61010117D01*
X90028571Y-61010117D02*
X90542857Y-61910117D01*
X90542857Y-61910117D02*
X90542857Y-61010117D01*
X90842857Y-61010117D02*
X91357143Y-61010117D01*
X91100000Y-61910117D02*
X91100000Y-61010117D01*
X92171428Y-61824402D02*
X92128571Y-61867260D01*
X92128571Y-61867260D02*
X91999999Y-61910117D01*
X91999999Y-61910117D02*
X91914285Y-61910117D01*
X91914285Y-61910117D02*
X91785714Y-61867260D01*
X91785714Y-61867260D02*
X91699999Y-61781545D01*
X91699999Y-61781545D02*
X91657142Y-61695831D01*
X91657142Y-61695831D02*
X91614285Y-61524402D01*
X91614285Y-61524402D02*
X91614285Y-61395831D01*
X91614285Y-61395831D02*
X91657142Y-61224402D01*
X91657142Y-61224402D02*
X91699999Y-61138688D01*
X91699999Y-61138688D02*
X91785714Y-61052974D01*
X91785714Y-61052974D02*
X91914285Y-61010117D01*
X91914285Y-61010117D02*
X91999999Y-61010117D01*
X91999999Y-61010117D02*
X92128571Y-61052974D01*
X92128571Y-61052974D02*
X92171428Y-61095831D01*
X53700000Y-42826474D02*
X53700000Y-41026474D01*
X53700000Y-41026474D02*
X54728571Y-42826474D01*
X54728571Y-42826474D02*
X54728571Y-41026474D01*
X55585714Y-42826474D02*
X55585714Y-41026474D01*
X57385714Y-41112188D02*
X57214286Y-41026474D01*
X57214286Y-41026474D02*
X56957143Y-41026474D01*
X56957143Y-41026474D02*
X56700000Y-41112188D01*
X56700000Y-41112188D02*
X56528571Y-41283617D01*
X56528571Y-41283617D02*
X56442857Y-41455045D01*
X56442857Y-41455045D02*
X56357143Y-41797902D01*
X56357143Y-41797902D02*
X56357143Y-42055045D01*
X56357143Y-42055045D02*
X56442857Y-42397902D01*
X56442857Y-42397902D02*
X56528571Y-42569331D01*
X56528571Y-42569331D02*
X56700000Y-42740760D01*
X56700000Y-42740760D02*
X56957143Y-42826474D01*
X56957143Y-42826474D02*
X57128571Y-42826474D01*
X57128571Y-42826474D02*
X57385714Y-42740760D01*
X57385714Y-42740760D02*
X57471428Y-42655045D01*
X57471428Y-42655045D02*
X57471428Y-42055045D01*
X57471428Y-42055045D02*
X57128571Y-42055045D01*
X58242857Y-42826474D02*
X58242857Y-41026474D01*
X58242857Y-41883617D02*
X59271428Y-41883617D01*
X59271428Y-42826474D02*
X59271428Y-41026474D01*
X59871428Y-41026474D02*
X60900000Y-41026474D01*
X60385714Y-42826474D02*
X60385714Y-41026474D01*
X61328571Y-41026474D02*
X61757143Y-42826474D01*
X61757143Y-42826474D02*
X62100000Y-41540760D01*
X62100000Y-41540760D02*
X62442857Y-42826474D01*
X62442857Y-42826474D02*
X62871429Y-41026474D01*
X63471429Y-42312188D02*
X64328572Y-42312188D01*
X63300000Y-42826474D02*
X63900000Y-41026474D01*
X63900000Y-41026474D02*
X64500000Y-42826474D01*
X64842857Y-41026474D02*
X65442857Y-42826474D01*
X65442857Y-42826474D02*
X66042857Y-41026474D01*
X66642857Y-41883617D02*
X67242857Y-41883617D01*
X67500000Y-42826474D02*
X66642857Y-42826474D01*
X66642857Y-42826474D02*
X66642857Y-41026474D01*
X66642857Y-41026474D02*
X67500000Y-41026474D01*
X70671428Y-42826474D02*
X70071428Y-41969331D01*
X69642857Y-42826474D02*
X69642857Y-41026474D01*
X69642857Y-41026474D02*
X70328571Y-41026474D01*
X70328571Y-41026474D02*
X70500000Y-41112188D01*
X70500000Y-41112188D02*
X70585714Y-41197902D01*
X70585714Y-41197902D02*
X70671428Y-41369331D01*
X70671428Y-41369331D02*
X70671428Y-41626474D01*
X70671428Y-41626474D02*
X70585714Y-41797902D01*
X70585714Y-41797902D02*
X70500000Y-41883617D01*
X70500000Y-41883617D02*
X70328571Y-41969331D01*
X70328571Y-41969331D02*
X69642857Y-41969331D01*
X71785714Y-41026474D02*
X71957143Y-41026474D01*
X71957143Y-41026474D02*
X72128571Y-41112188D01*
X72128571Y-41112188D02*
X72214286Y-41197902D01*
X72214286Y-41197902D02*
X72300000Y-41369331D01*
X72300000Y-41369331D02*
X72385714Y-41712188D01*
X72385714Y-41712188D02*
X72385714Y-42140760D01*
X72385714Y-42140760D02*
X72300000Y-42483617D01*
X72300000Y-42483617D02*
X72214286Y-42655045D01*
X72214286Y-42655045D02*
X72128571Y-42740760D01*
X72128571Y-42740760D02*
X71957143Y-42826474D01*
X71957143Y-42826474D02*
X71785714Y-42826474D01*
X71785714Y-42826474D02*
X71614286Y-42740760D01*
X71614286Y-42740760D02*
X71528571Y-42655045D01*
X71528571Y-42655045D02*
X71442857Y-42483617D01*
X71442857Y-42483617D02*
X71357143Y-42140760D01*
X71357143Y-42140760D02*
X71357143Y-41712188D01*
X71357143Y-41712188D02*
X71442857Y-41369331D01*
X71442857Y-41369331D02*
X71528571Y-41197902D01*
X71528571Y-41197902D02*
X71614286Y-41112188D01*
X71614286Y-41112188D02*
X71785714Y-41026474D01*
%TO.C,R25*%
X44262742Y-48977500D02*
X44737258Y-48977500D01*
X44262742Y-50022500D02*
X44737258Y-50022500D01*
%TO.C,C32*%
X88738748Y-63265000D02*
X89261252Y-63265000D01*
X88738748Y-64735000D02*
X89261252Y-64735000D01*
%TO.C,C17*%
X13238748Y-47765000D02*
X13761252Y-47765000D01*
X13238748Y-49235000D02*
X13761252Y-49235000D01*
%TO.C,C10*%
X35238748Y-50765000D02*
X35761252Y-50765000D01*
X35238748Y-52235000D02*
X35761252Y-52235000D01*
%TO.C,R47*%
X45762742Y-83477500D02*
X46237258Y-83477500D01*
X45762742Y-84522500D02*
X46237258Y-84522500D01*
%TO.C,R23*%
X9262742Y-50977500D02*
X9737258Y-50977500D01*
X9262742Y-52022500D02*
X9737258Y-52022500D01*
%TO.C,J3*%
X85940000Y-52540000D02*
X85940000Y-60360000D01*
X85940000Y-54140000D02*
X86860000Y-54140000D01*
X85940000Y-60360000D02*
X92060000Y-60360000D01*
X86860000Y-52540000D02*
X85940000Y-52540000D01*
X86860000Y-54140000D02*
X86860000Y-52540000D01*
X87140000Y-54140000D02*
X86860000Y-54140000D01*
X87140000Y-54140000D02*
X87140000Y-52925000D01*
X87200000Y-58100000D02*
X87200000Y-60360000D01*
X87700000Y-58100000D02*
X87700000Y-60360000D01*
X88500000Y-56000000D02*
X89500000Y-56000000D01*
X88500000Y-60360000D02*
X88500000Y-56000000D01*
X89500000Y-56000000D02*
X89500000Y-60360000D01*
X91140000Y-52540000D02*
X91140000Y-54140000D01*
X91140000Y-54140000D02*
X90860000Y-54140000D01*
X92060000Y-52540000D02*
X91140000Y-52540000D01*
X92060000Y-54140000D02*
X91140000Y-54140000D01*
X92060000Y-60360000D02*
X92060000Y-52540000D01*
X86700000Y-56500000D02*
X87700000Y-56500000D01*
X87700000Y-58100000D01*
X86700000Y-58100000D01*
X86700000Y-56500000D01*
X90300000Y-56500000D02*
X91300000Y-56500000D01*
X91300000Y-58100000D01*
X90300000Y-58100000D01*
X90300000Y-56500000D01*
%TO.C,C19*%
X58738748Y-28265000D02*
X59261252Y-28265000D01*
X58738748Y-29735000D02*
X59261252Y-29735000D01*
%TO.C,C1*%
X33359420Y-56990000D02*
X33640580Y-56990000D01*
X33359420Y-58010000D02*
X33640580Y-58010000D01*
%TO.C,R4*%
X28262742Y-54977500D02*
X28737258Y-54977500D01*
X28262742Y-56022500D02*
X28737258Y-56022500D01*
%TO.C,C34*%
X47738748Y-73265000D02*
X48261252Y-73265000D01*
X47738748Y-74735000D02*
X48261252Y-74735000D01*
%TO.C,C35*%
X33238748Y-47765000D02*
X33761252Y-47765000D01*
X33238748Y-49235000D02*
X33761252Y-49235000D01*
%TO.C,C25*%
X64738748Y-62265000D02*
X65261252Y-62265000D01*
X64738748Y-63735000D02*
X65261252Y-63735000D01*
%TO.C,R17*%
X63762742Y-59477500D02*
X64237258Y-59477500D01*
X63762742Y-60522500D02*
X64237258Y-60522500D01*
%TO.C,C20*%
X62738748Y-28265000D02*
X63261252Y-28265000D01*
X62738748Y-29735000D02*
X63261252Y-29735000D01*
%TO.C,R37*%
X29762742Y-80977500D02*
X30237258Y-80977500D01*
X29762742Y-82022500D02*
X30237258Y-82022500D01*
%TO.C,J8*%
X14620000Y-55620000D02*
X16000000Y-55620000D01*
X14620000Y-57000000D02*
X14620000Y-55620000D01*
X14620000Y-58270000D02*
X14620000Y-71080000D01*
X14620000Y-58270000D02*
X17380000Y-58270000D01*
X14620000Y-71080000D02*
X17380000Y-71080000D01*
X17380000Y-58270000D02*
X17380000Y-71080000D01*
%TO.C,U12*%
X91270000Y-36660000D02*
X91270000Y-38230000D01*
X91270000Y-38230000D02*
X93940000Y-38230000D01*
X104060000Y-38230000D02*
X106730000Y-38230000D01*
X106730000Y-38230000D02*
X106730000Y-36660000D01*
X91200000Y-16500000D02*
X90700000Y-16500000D01*
X91200000Y-16000000D01*
X91200000Y-16500000D01*
G36*
X91200000Y-16500000D02*
G01*
X90700000Y-16500000D01*
X91200000Y-16000000D01*
X91200000Y-16500000D01*
G37*
%TO.C,R10*%
X63762742Y-75477500D02*
X64237258Y-75477500D01*
X63762742Y-76522500D02*
X64237258Y-76522500D01*
%TO.C,R1*%
X24762742Y-57477500D02*
X25237258Y-57477500D01*
X24762742Y-58522500D02*
X25237258Y-58522500D01*
%TO.C,R43*%
X29762742Y-82977500D02*
X30237258Y-82977500D01*
X29762742Y-84022500D02*
X30237258Y-84022500D01*
%TO.C,C2*%
X42859420Y-57490000D02*
X43140580Y-57490000D01*
X42859420Y-58510000D02*
X43140580Y-58510000D01*
%TO.C,TP2*%
X41700000Y-94000000D02*
G75*
G02*
X40300000Y-94000000I-700000J0D01*
G01*
X40300000Y-94000000D02*
G75*
G02*
X41700000Y-94000000I700000J0D01*
G01*
%TO.C,C23*%
X68238748Y-65265000D02*
X68761252Y-65265000D01*
X68238748Y-66735000D02*
X68761252Y-66735000D01*
%TO.C,R45*%
X37762742Y-82977500D02*
X38237258Y-82977500D01*
X37762742Y-84022500D02*
X38237258Y-84022500D01*
%TO.C,R24*%
X20762742Y-57977500D02*
X21237258Y-57977500D01*
X20762742Y-59022500D02*
X21237258Y-59022500D01*
%TO.C,R11*%
X65762742Y-72477500D02*
X66237258Y-72477500D01*
X65762742Y-73522500D02*
X66237258Y-73522500D01*
%TO.C,R36*%
X49762742Y-78477500D02*
X50237258Y-78477500D01*
X49762742Y-79522500D02*
X50237258Y-79522500D01*
%TO.C,J6*%
X104940000Y-75540000D02*
X104940000Y-83360000D01*
X104940000Y-77140000D02*
X105860000Y-77140000D01*
X104940000Y-83360000D02*
X111060000Y-83360000D01*
X105860000Y-75540000D02*
X104940000Y-75540000D01*
X105860000Y-77140000D02*
X105860000Y-75540000D01*
X106140000Y-77140000D02*
X105860000Y-77140000D01*
X106140000Y-77140000D02*
X106140000Y-75925000D01*
X106200000Y-81100000D02*
X106200000Y-83360000D01*
X106700000Y-81100000D02*
X106700000Y-83360000D01*
X107500000Y-79000000D02*
X108500000Y-79000000D01*
X107500000Y-83360000D02*
X107500000Y-79000000D01*
X108500000Y-79000000D02*
X108500000Y-83360000D01*
X110140000Y-75540000D02*
X110140000Y-77140000D01*
X110140000Y-77140000D02*
X109860000Y-77140000D01*
X111060000Y-75540000D02*
X110140000Y-75540000D01*
X111060000Y-77140000D02*
X110140000Y-77140000D01*
X111060000Y-83360000D02*
X111060000Y-75540000D01*
X105700000Y-79500000D02*
X106700000Y-79500000D01*
X106700000Y-81100000D01*
X105700000Y-81100000D01*
X105700000Y-79500000D01*
X109300000Y-79500000D02*
X110300000Y-79500000D01*
X110300000Y-81100000D01*
X109300000Y-81100000D01*
X109300000Y-79500000D01*
%TO.C,U10*%
X90390000Y-66390000D02*
X90865000Y-66390000D01*
X90390000Y-66865000D02*
X90390000Y-66390000D01*
X90390000Y-69610000D02*
X90390000Y-69135000D01*
X90865000Y-69610000D02*
X90390000Y-69610000D01*
X93135000Y-66390000D02*
X93610000Y-66390000D01*
X93610000Y-66390000D02*
X93610000Y-66865000D01*
X93610000Y-69135000D02*
X93610000Y-69610000D01*
X93610000Y-69610000D02*
X93135000Y-69610000D01*
X89880000Y-67250000D02*
X89550000Y-67490000D01*
X89550000Y-67010000D01*
X89880000Y-67250000D01*
G36*
X89880000Y-67250000D02*
G01*
X89550000Y-67490000D01*
X89550000Y-67010000D01*
X89880000Y-67250000D01*
G37*
%TO.C,C29*%
X70738748Y-61265000D02*
X71261252Y-61265000D01*
X70738748Y-62735000D02*
X71261252Y-62735000D01*
%TO.C,C31*%
X82238748Y-68265000D02*
X82761252Y-68265000D01*
X82238748Y-69735000D02*
X82761252Y-69735000D01*
%TO.C,C36*%
X88238748Y-35265000D02*
X88761252Y-35265000D01*
X88238748Y-36735000D02*
X88761252Y-36735000D01*
%TO.C,R2*%
X21262742Y-55977500D02*
X21737258Y-55977500D01*
X21262742Y-57022500D02*
X21737258Y-57022500D01*
%TO.C,C6*%
X81359420Y-53490000D02*
X81640580Y-53490000D01*
X81359420Y-54510000D02*
X81640580Y-54510000D01*
%TO.C,R20*%
X38762742Y-59477500D02*
X39237258Y-59477500D01*
X38762742Y-60522500D02*
X39237258Y-60522500D01*
%TO.C,C14*%
X81238748Y-57265000D02*
X81761252Y-57265000D01*
X81238748Y-58735000D02*
X81761252Y-58735000D01*
%TO.C,TP6*%
X105700000Y-94000000D02*
G75*
G02*
X104300000Y-94000000I-700000J0D01*
G01*
X104300000Y-94000000D02*
G75*
G02*
X105700000Y-94000000I700000J0D01*
G01*
%TO.C,R42*%
X49762742Y-80977500D02*
X50237258Y-80977500D01*
X49762742Y-82022500D02*
X50237258Y-82022500D01*
%TO.C,R29*%
X61762742Y-73477500D02*
X62237258Y-73477500D01*
X61762742Y-74522500D02*
X62237258Y-74522500D01*
%TO.C,R39*%
X37762742Y-80977500D02*
X38237258Y-80977500D01*
X37762742Y-82022500D02*
X38237258Y-82022500D01*
%TO.C,R31*%
X29762742Y-78477500D02*
X30237258Y-78477500D01*
X29762742Y-79522500D02*
X30237258Y-79522500D01*
%TO.C,SW6*%
X6550000Y-74430000D02*
X6550000Y-75220000D01*
X7150000Y-76230000D02*
X12850000Y-76230000D01*
X8400000Y-73380000D02*
X10100000Y-73380000D01*
X8600000Y-76230000D02*
X8600000Y-77520000D01*
X8600000Y-77520000D02*
X8800000Y-77730000D01*
X8800000Y-77730000D02*
X9700000Y-77730000D01*
X9900000Y-77520000D02*
X9700000Y-77730000D01*
X9900000Y-77520000D02*
X9900000Y-76230000D01*
X11400000Y-73380000D02*
X11600000Y-73380000D01*
X13450000Y-75220000D02*
X13450000Y-74430000D01*
%TO.C,R3*%
X24762742Y-55477500D02*
X25237258Y-55477500D01*
X24762742Y-56522500D02*
X25237258Y-56522500D01*
%TO.C,R15*%
X96762742Y-53477500D02*
X97237258Y-53477500D01*
X96762742Y-54522500D02*
X97237258Y-54522500D01*
%TO.C,TP16*%
X73700000Y-101000000D02*
G75*
G02*
X72300000Y-101000000I-700000J0D01*
G01*
X72300000Y-101000000D02*
G75*
G02*
X73700000Y-101000000I700000J0D01*
G01*
%TO.C,SW2*%
X36250000Y-87000000D02*
X36250000Y-89000000D01*
X37300000Y-85700000D02*
X37750000Y-85250000D01*
X37300000Y-90300000D02*
X37750000Y-90750000D01*
X37750000Y-85250000D02*
X40250000Y-85250000D01*
X37750000Y-90750000D02*
X40250000Y-90750000D01*
X40700000Y-85700000D02*
X40250000Y-85250000D01*
X40700000Y-90300000D02*
X40250000Y-90750000D01*
X41750000Y-87000000D02*
X41750000Y-89000000D01*
%TO.C,J4*%
X57430000Y-13550000D02*
X57430000Y-18000000D01*
X57430000Y-19400000D02*
X57430000Y-21700000D01*
X57430000Y-23100000D02*
X57430000Y-23820000D01*
X57430000Y-23820000D02*
X60110000Y-23820000D01*
X58910000Y-12180000D02*
X59770000Y-12180000D01*
X62410000Y-23820000D02*
X66080000Y-23820000D01*
X68380000Y-23820000D02*
X69610000Y-23820000D01*
X69610000Y-23820000D02*
X69610000Y-14000000D01*
%TO.C,C24*%
X68238748Y-68265000D02*
X68761252Y-68265000D01*
X68238748Y-69735000D02*
X68761252Y-69735000D01*
%TO.C,R30*%
X57762742Y-59977500D02*
X58237258Y-59977500D01*
X57762742Y-61022500D02*
X58237258Y-61022500D01*
%TO.C,R27*%
X91262742Y-73477500D02*
X91737258Y-73477500D01*
X91262742Y-74522500D02*
X91737258Y-74522500D01*
%TO.C,C37*%
X95738748Y-39765000D02*
X96261252Y-39765000D01*
X95738748Y-41235000D02*
X96261252Y-41235000D01*
%TO.C,R28*%
X77762742Y-73477500D02*
X78237258Y-73477500D01*
X77762742Y-74522500D02*
X78237258Y-74522500D01*
%TO.C,C4*%
X54859420Y-56990000D02*
X55140580Y-56990000D01*
X54859420Y-58010000D02*
X55140580Y-58010000D01*
%TO.C,C8*%
X36859420Y-57490000D02*
X37140580Y-57490000D01*
X36859420Y-58510000D02*
X37140580Y-58510000D01*
%TO.C,C28*%
X82238748Y-65265000D02*
X82761252Y-65265000D01*
X82238748Y-66735000D02*
X82761252Y-66735000D01*
%TO.C,C7*%
X70859420Y-49490000D02*
X71140580Y-49490000D01*
X70859420Y-50510000D02*
X71140580Y-50510000D01*
%TO.C,TP3*%
X57700000Y-94000000D02*
G75*
G02*
X56300000Y-94000000I-700000J0D01*
G01*
X56300000Y-94000000D02*
G75*
G02*
X57700000Y-94000000I700000J0D01*
G01*
%TO.C,R32*%
X33762742Y-78477500D02*
X34237258Y-78477500D01*
X33762742Y-79522500D02*
X34237258Y-79522500D01*
%TO.C,C27*%
X73238748Y-68265000D02*
X73761252Y-68265000D01*
X73238748Y-69735000D02*
X73761252Y-69735000D01*
%TO.C,R6*%
X60262742Y-32977500D02*
X60737258Y-32977500D01*
X60262742Y-34022500D02*
X60737258Y-34022500D01*
%TO.C,R19*%
X76262742Y-58977500D02*
X76737258Y-58977500D01*
X76262742Y-60022500D02*
X76737258Y-60022500D01*
%TO.C,C9*%
X35738748Y-54465000D02*
X36261252Y-54465000D01*
X35738748Y-55935000D02*
X36261252Y-55935000D01*
%TO.C,J7*%
X16765000Y-49290000D02*
X18565000Y-49290000D01*
X16765000Y-50740000D02*
X16765000Y-49290000D01*
X18035000Y-53560000D02*
X28965000Y-53560000D01*
X18565000Y-49290000D02*
X18565000Y-48300000D01*
X30235000Y-49290000D02*
X28435000Y-49290000D01*
X30235000Y-50740000D02*
X30235000Y-49290000D01*
%TO.C,R46*%
X41762742Y-82977500D02*
X42237258Y-82977500D01*
X41762742Y-84022500D02*
X42237258Y-84022500D01*
%TO.C,C18*%
X7238748Y-47765000D02*
X7761252Y-47765000D01*
X7238748Y-49235000D02*
X7761252Y-49235000D01*
%TO.C,SW5*%
X78250000Y-87000000D02*
X78250000Y-89000000D01*
X79300000Y-85700000D02*
X79750000Y-85250000D01*
X79300000Y-90300000D02*
X79750000Y-90750000D01*
X79750000Y-85250000D02*
X82250000Y-85250000D01*
X79750000Y-90750000D02*
X82250000Y-90750000D01*
X82700000Y-85700000D02*
X82250000Y-85250000D01*
X82700000Y-90300000D02*
X82250000Y-90750000D01*
X83750000Y-87000000D02*
X83750000Y-89000000D01*
%TO.C,U8*%
X59690000Y-64590000D02*
X64310000Y-64590000D01*
X64310000Y-71410000D02*
X59690000Y-71410000D01*
X58090000Y-65070000D02*
X57760000Y-65310000D01*
X57760000Y-64830000D01*
X58090000Y-65070000D01*
G36*
X58090000Y-65070000D02*
G01*
X57760000Y-65310000D01*
X57760000Y-64830000D01*
X58090000Y-65070000D01*
G37*
%TO.C,U9*%
X76390000Y-66390000D02*
X76865000Y-66390000D01*
X76390000Y-66865000D02*
X76390000Y-66390000D01*
X76390000Y-69610000D02*
X76390000Y-69135000D01*
X76865000Y-69610000D02*
X76390000Y-69610000D01*
X79135000Y-66390000D02*
X79610000Y-66390000D01*
X79610000Y-66390000D02*
X79610000Y-66865000D01*
X79610000Y-69135000D02*
X79610000Y-69610000D01*
X79610000Y-69610000D02*
X79135000Y-69610000D01*
X75860000Y-67250000D02*
X75530000Y-67490000D01*
X75530000Y-67010000D01*
X75860000Y-67250000D01*
G36*
X75860000Y-67250000D02*
G01*
X75530000Y-67490000D01*
X75530000Y-67010000D01*
X75860000Y-67250000D01*
G37*
%TO.C,R5*%
X59262742Y-34977500D02*
X59737258Y-34977500D01*
X59262742Y-36022500D02*
X59737258Y-36022500D01*
%TO.C,C15*%
X51738748Y-59265000D02*
X52261252Y-59265000D01*
X51738748Y-60735000D02*
X52261252Y-60735000D01*
%TO.C,TP11*%
X89700000Y-97500000D02*
G75*
G02*
X88300000Y-97500000I-700000J0D01*
G01*
X88300000Y-97500000D02*
G75*
G02*
X89700000Y-97500000I700000J0D01*
G01*
%TO.C,TP13*%
X25700000Y-101000000D02*
G75*
G02*
X24300000Y-101000000I-700000J0D01*
G01*
X24300000Y-101000000D02*
G75*
G02*
X25700000Y-101000000I700000J0D01*
G01*
%TO.C,R50*%
X68762742Y-30477500D02*
X69237258Y-30477500D01*
X68762742Y-31522500D02*
X69237258Y-31522500D01*
%TO.C,R14*%
X95762742Y-51477500D02*
X96237258Y-51477500D01*
X95762742Y-52522500D02*
X96237258Y-52522500D01*
%TO.C,TP14*%
X41700000Y-101000000D02*
G75*
G02*
X40300000Y-101000000I-700000J0D01*
G01*
X40300000Y-101000000D02*
G75*
G02*
X41700000Y-101000000I700000J0D01*
G01*
%TO.C,U4*%
X51304432Y-53865000D02*
X53110000Y-53865000D01*
X53110000Y-56135000D02*
X50890000Y-56135000D01*
X51010000Y-53860000D02*
X50870000Y-53670000D01*
X51150000Y-53670000D01*
X51010000Y-53860000D01*
G36*
X51010000Y-53860000D02*
G01*
X50870000Y-53670000D01*
X51150000Y-53670000D01*
X51010000Y-53860000D01*
G37*
%TO.C,R22*%
X45762742Y-59477500D02*
X46237258Y-59477500D01*
X45762742Y-60522500D02*
X46237258Y-60522500D01*
%TO.C,SW3*%
X50250000Y-87000000D02*
X50250000Y-89000000D01*
X51300000Y-85700000D02*
X51750000Y-85250000D01*
X51300000Y-90300000D02*
X51750000Y-90750000D01*
X51750000Y-85250000D02*
X54250000Y-85250000D01*
X51750000Y-90750000D02*
X54250000Y-90750000D01*
X54700000Y-85700000D02*
X54250000Y-85250000D01*
X54700000Y-90300000D02*
X54250000Y-90750000D01*
X55750000Y-87000000D02*
X55750000Y-89000000D01*
%TO.C,C16*%
X13238748Y-50265000D02*
X13761252Y-50265000D01*
X13238748Y-51735000D02*
X13761252Y-51735000D01*
%TO.C,R7*%
X52762742Y-74477500D02*
X53237258Y-74477500D01*
X52762742Y-75522500D02*
X53237258Y-75522500D01*
%TO.C,R41*%
X45762742Y-80977500D02*
X46237258Y-80977500D01*
X45762742Y-82022500D02*
X46237258Y-82022500D01*
%TO.C,TP9*%
X57700000Y-97500000D02*
G75*
G02*
X56300000Y-97500000I-700000J0D01*
G01*
X56300000Y-97500000D02*
G75*
G02*
X57700000Y-97500000I700000J0D01*
G01*
%TO.C,R44*%
X33762742Y-82977500D02*
X34237258Y-82977500D01*
X33762742Y-84022500D02*
X34237258Y-84022500D01*
%TO.C,TP7*%
X25700000Y-97500000D02*
G75*
G02*
X24300000Y-97500000I-700000J0D01*
G01*
X24300000Y-97500000D02*
G75*
G02*
X25700000Y-97500000I700000J0D01*
G01*
%TO.C,C12*%
X68238748Y-57265000D02*
X68761252Y-57265000D01*
X68238748Y-58735000D02*
X68761252Y-58735000D01*
%TO.C,C13*%
X74238748Y-53265000D02*
X74761252Y-53265000D01*
X74238748Y-54735000D02*
X74761252Y-54735000D01*
%TO.C,R34*%
X41762742Y-78977500D02*
X42237258Y-78977500D01*
X41762742Y-80022500D02*
X42237258Y-80022500D01*
%TO.C,TP5*%
X89700000Y-94000000D02*
G75*
G02*
X88300000Y-94000000I-700000J0D01*
G01*
X88300000Y-94000000D02*
G75*
G02*
X89700000Y-94000000I700000J0D01*
G01*
%TO.C,R16*%
X63762742Y-57477500D02*
X64237258Y-57477500D01*
X63762742Y-58522500D02*
X64237258Y-58522500D01*
%TO.C,TP12*%
X105700000Y-97500000D02*
G75*
G02*
X104300000Y-97500000I-700000J0D01*
G01*
X104300000Y-97500000D02*
G75*
G02*
X105700000Y-97500000I700000J0D01*
G01*
%TO.C,C11*%
X61238748Y-53265000D02*
X61761252Y-53265000D01*
X61238748Y-54735000D02*
X61761252Y-54735000D01*
%TO.C,C30*%
X74738748Y-61265000D02*
X75261252Y-61265000D01*
X74738748Y-62735000D02*
X75261252Y-62735000D01*
%TO.C,SW1*%
X22250000Y-87000000D02*
X22250000Y-89000000D01*
X23300000Y-85700000D02*
X23750000Y-85250000D01*
X23300000Y-90300000D02*
X23750000Y-90750000D01*
X23750000Y-85250000D02*
X26250000Y-85250000D01*
X23750000Y-90750000D02*
X26250000Y-90750000D01*
X26700000Y-85700000D02*
X26250000Y-85250000D01*
X26700000Y-90300000D02*
X26250000Y-90750000D01*
X27750000Y-87000000D02*
X27750000Y-89000000D01*
%TO.C,R18*%
X72762742Y-57477500D02*
X73237258Y-57477500D01*
X72762742Y-58522500D02*
X73237258Y-58522500D01*
%TO.C,R21*%
X42262742Y-59477500D02*
X42737258Y-59477500D01*
X42262742Y-60522500D02*
X42737258Y-60522500D01*
%TO.C,U7*%
X51304432Y-61865000D02*
X53110000Y-61865000D01*
X53110000Y-64135000D02*
X50890000Y-64135000D01*
X51010000Y-61860000D02*
X50870000Y-61670000D01*
X51150000Y-61670000D01*
X51010000Y-61860000D01*
G36*
X51010000Y-61860000D02*
G01*
X50870000Y-61670000D01*
X51150000Y-61670000D01*
X51010000Y-61860000D01*
G37*
%TO.C,TP4*%
X73700000Y-94000000D02*
G75*
G02*
X72300000Y-94000000I-700000J0D01*
G01*
X72300000Y-94000000D02*
G75*
G02*
X73700000Y-94000000I700000J0D01*
G01*
%TO.C,R49*%
X64762742Y-30977500D02*
X65237258Y-30977500D01*
X64762742Y-32022500D02*
X65237258Y-32022500D01*
%TO.C,R48*%
X60762742Y-30977500D02*
X61237258Y-30977500D01*
X60762742Y-32022500D02*
X61237258Y-32022500D01*
%TO.C,SW4*%
X64250000Y-87000000D02*
X64250000Y-89000000D01*
X65300000Y-85700000D02*
X65750000Y-85250000D01*
X65300000Y-90300000D02*
X65750000Y-90750000D01*
X65750000Y-85250000D02*
X68250000Y-85250000D01*
X65750000Y-90750000D02*
X68250000Y-90750000D01*
X68700000Y-85700000D02*
X68250000Y-85250000D01*
X68700000Y-90300000D02*
X68250000Y-90750000D01*
X69750000Y-87000000D02*
X69750000Y-89000000D01*
%TO.C,TP1*%
X25700000Y-94000000D02*
G75*
G02*
X24300000Y-94000000I-700000J0D01*
G01*
X24300000Y-94000000D02*
G75*
G02*
X25700000Y-94000000I700000J0D01*
G01*
%TO.C,J1*%
X8775000Y-53330000D02*
X10475000Y-53330000D01*
X8775000Y-62670000D02*
X10475000Y-62670000D01*
%TO.C,C26*%
X73238748Y-65265000D02*
X73761252Y-65265000D01*
X73238748Y-66735000D02*
X73761252Y-66735000D01*
%TO.C,R12*%
X68762742Y-74477500D02*
X69237258Y-74477500D01*
X68762742Y-75522500D02*
X69237258Y-75522500D01*
%TO.C,J2*%
X85940000Y-41540000D02*
X85940000Y-49360000D01*
X85940000Y-43140000D02*
X86860000Y-43140000D01*
X85940000Y-49360000D02*
X92060000Y-49360000D01*
X86860000Y-41540000D02*
X85940000Y-41540000D01*
X86860000Y-43140000D02*
X86860000Y-41540000D01*
X87140000Y-43140000D02*
X86860000Y-43140000D01*
X87140000Y-43140000D02*
X87140000Y-41925000D01*
X87200000Y-47100000D02*
X87200000Y-49360000D01*
X87700000Y-47100000D02*
X87700000Y-49360000D01*
X88500000Y-45000000D02*
X89500000Y-45000000D01*
X88500000Y-49360000D02*
X88500000Y-45000000D01*
X89500000Y-45000000D02*
X89500000Y-49360000D01*
X91140000Y-41540000D02*
X91140000Y-43140000D01*
X91140000Y-43140000D02*
X90860000Y-43140000D01*
X92060000Y-41540000D02*
X91140000Y-41540000D01*
X92060000Y-43140000D02*
X91140000Y-43140000D01*
X92060000Y-49360000D02*
X92060000Y-41540000D01*
X86700000Y-45500000D02*
X87700000Y-45500000D01*
X87700000Y-47100000D01*
X86700000Y-47100000D01*
X86700000Y-45500000D01*
X90300000Y-45500000D02*
X91300000Y-45500000D01*
X91300000Y-47100000D01*
X90300000Y-47100000D01*
X90300000Y-45500000D01*
%TO.C,TP10*%
X73700000Y-97500000D02*
G75*
G02*
X72300000Y-97500000I-700000J0D01*
G01*
X72300000Y-97500000D02*
G75*
G02*
X73700000Y-97500000I700000J0D01*
G01*
%TO.C,R13*%
X94262742Y-56977500D02*
X94737258Y-56977500D01*
X94262742Y-58022500D02*
X94737258Y-58022500D01*
%TO.C,R8*%
X56262742Y-74477500D02*
X56737258Y-74477500D01*
X56262742Y-75522500D02*
X56737258Y-75522500D01*
%TO.C,C22*%
X55238748Y-68265000D02*
X55761252Y-68265000D01*
X55238748Y-69735000D02*
X55761252Y-69735000D01*
%TO.C,R9*%
X59762742Y-75477500D02*
X60237258Y-75477500D01*
X59762742Y-76522500D02*
X60237258Y-76522500D01*
%TO.C,R51*%
X94762742Y-73477500D02*
X95237258Y-73477500D01*
X94762742Y-74522500D02*
X95237258Y-74522500D01*
%TO.C,TP15*%
X57700000Y-101000000D02*
G75*
G02*
X56300000Y-101000000I-700000J0D01*
G01*
X56300000Y-101000000D02*
G75*
G02*
X57700000Y-101000000I700000J0D01*
G01*
%TO.C,C5*%
X68359420Y-53490000D02*
X68640580Y-53490000D01*
X68359420Y-54510000D02*
X68640580Y-54510000D01*
%TO.C,R33*%
X37762742Y-78977500D02*
X38237258Y-78977500D01*
X37762742Y-80022500D02*
X38237258Y-80022500D01*
%TO.C,R40*%
X41762742Y-80977500D02*
X42237258Y-80977500D01*
X41762742Y-82022500D02*
X42237258Y-82022500D01*
%TO.C,U11*%
X39690000Y-69965000D02*
X44310000Y-69965000D01*
X44310000Y-78035000D02*
X39690000Y-78035000D01*
X38140000Y-70420000D02*
X37810000Y-70660000D01*
X37810000Y-70180000D01*
X38140000Y-70420000D01*
G36*
X38140000Y-70420000D02*
G01*
X37810000Y-70660000D01*
X37810000Y-70180000D01*
X38140000Y-70420000D01*
G37*
%TO.C,U1*%
X22800000Y-20600000D02*
X22800000Y-26800000D01*
X22800000Y-20600000D02*
X41200000Y-20600000D01*
X22800000Y-45450000D02*
X22800000Y-46450000D01*
X22800000Y-46450000D02*
X24300000Y-46450000D01*
X41200000Y-20600000D02*
X41200000Y-26800000D01*
X41200000Y-46450000D02*
X39700000Y-46450000D01*
X41200000Y-46450000D02*
X41200000Y-45450000D01*
X22800000Y-27475000D02*
X22300000Y-27475000D01*
X22800000Y-26975000D01*
X22800000Y-27475000D01*
G36*
X22800000Y-27475000D02*
G01*
X22300000Y-27475000D01*
X22800000Y-26975000D01*
X22800000Y-27475000D01*
G37*
%TO.C,C3*%
X44859420Y-53490000D02*
X45140580Y-53490000D01*
X44859420Y-54510000D02*
X45140580Y-54510000D01*
%TO.C,R26*%
X79762742Y-59977500D02*
X80237258Y-59977500D01*
X79762742Y-61022500D02*
X80237258Y-61022500D01*
%TO.C,C21*%
X58738748Y-62265000D02*
X59261252Y-62265000D01*
X58738748Y-63735000D02*
X59261252Y-63735000D01*
%TO.C,C33*%
X94738748Y-63265000D02*
X95261252Y-63265000D01*
X94738748Y-64735000D02*
X95261252Y-64735000D01*
%TO.C,R35*%
X45762742Y-78977500D02*
X46237258Y-78977500D01*
X45762742Y-80022500D02*
X46237258Y-80022500D01*
%TO.C,TP8*%
X41700000Y-97500000D02*
G75*
G02*
X40300000Y-97500000I-700000J0D01*
G01*
X40300000Y-97500000D02*
G75*
G02*
X41700000Y-97500000I700000J0D01*
G01*
%TO.C,R38*%
X33762742Y-80977500D02*
X34237258Y-80977500D01*
X33762742Y-82022500D02*
X34237258Y-82022500D01*
%TD*%
M02*
