M48
; DRILL file KiCad 10.0.5 date 2026-10-06T09:38:32
; FORMAT={-:-/ absolute / metric / decimal}
; #@! TF.CreationDate,2026-10-06T09:38:32+05:30
; #@! TF.GenerationSoftware,Kicad,Pcbnew,10.0.5
; #@! TF.FileFunction,Plated,1,4,PTH
FMAT,2
METRIC
; #@! TA.AperFunction,Plated,PTH,ComponentDrill
T1C0.200
; #@! TA.AperFunction,Plated,PTH,ViaDrill
T2C0.300
; #@! TA.AperFunction,Plated,PTH,ViaDrill
T3C0.400
; #@! TA.AperFunction,Plated,PTH,ComponentDrill
T4C0.600
; #@! TA.AperFunction,Plated,PTH,ComponentDrill
T5C0.750
; #@! TA.AperFunction,Plated,PTH,ComponentDrill
T6C1.000
%
G90
G05
T1
X29.1Y-35.26
X29.1Y-36.66
X29.8Y-34.56
X29.8Y-35.96
X29.8Y-37.36
X30.5Y-35.26
X30.5Y-36.66
X31.2Y-34.56
X31.2Y-35.96
X31.2Y-37.36
X31.9Y-35.26
X31.9Y-36.66
X52.0Y-54.45
X52.0Y-55.55
X77.45Y-67.45
X77.45Y-68.55
X78.55Y-67.45
X78.55Y-68.55
T2
X7.572Y-49.363
X8.39Y-71.967
X10.414Y-53.124
X10.74Y-56.161
X11.318Y-56.649
X11.319Y-59.65
X11.402Y-71.933
X19.813Y-56.241
X21.625Y-47.831
X22.042Y-28.471
X22.042Y-30.78
X22.048Y-43.254
X22.355Y-57.623
X22.868Y-47.847
X23.298Y-58.25
X23.581Y-47.496
X24.262Y-89.9
X24.453Y-35.86
X24.458Y-32.282
X24.458Y-33.32
X24.46Y-34.59
X24.463Y-37.13
X24.463Y-39.67
X24.514Y-44.193
X25.0Y-96.527
X25.449Y-42.912
X25.629Y-101.75
X25.882Y-47.929
X26.733Y-57.263
X27.048Y-85.185
X27.621Y-47.21
X28.372Y-47.417
X28.377Y-54.798
X28.633Y-48.392
X29.026Y-44.797
X29.878Y-84.203
X29.88Y-80.797
X30.156Y-32.592
X30.234Y-33.344
X30.304Y-44.79
X30.655Y-66.424
X31.25Y-50.823
X32.093Y-47.207
X32.523Y-84.248
X32.541Y-43.376
X32.569Y-44.128
X33.88Y-78.295
X33.881Y-82.794
X35.488Y-58.737
X35.655Y-44.792
X36.307Y-43.359
X36.477Y-48.386
X36.657Y-31.362
X36.863Y-47.211
X37.097Y-82.56
X37.726Y-76.448
X37.799Y-72.574
X37.828Y-54.353
X37.964Y-78.444
X38.068Y-82.199
X38.215Y-41.259
X38.936Y-69.701
X38.988Y-30.861
X39.152Y-86.1
X39.401Y-55.031
X39.542Y-28.471
X39.542Y-36.036
X39.542Y-37.211
X39.543Y-34.82
X39.543Y-39.9
X40.336Y-75.822
X40.34Y-76.94
X40.349Y-74.325
X40.46Y-82.785
X40.779Y-75.174
X40.86Y-73.741
X41.826Y-72.952
X41.881Y-78.792
X41.957Y-31.01
X41.959Y-97.732
X41.968Y-101.0
X41.971Y-29.729
X41.976Y-38.4
X42.21Y-54.577
X42.521Y-56.382
X43.125Y-73.776
X43.236Y-55.358
X43.435Y-76.871
X43.612Y-74.366
X43.633Y-76.099
X43.647Y-75.174
X43.654Y-73.21
X43.9Y-56.007
X44.025Y-50.439
X44.193Y-80.83
X44.304Y-78.257
X44.472Y-83.297
X44.598Y-55.337
X44.868Y-66.424
X45.704Y-86.1
X45.889Y-58.0
X46.121Y-75.749
X46.201Y-58.778
X46.396Y-71.423
X46.738Y-67.339
X48.119Y-77.338
X48.464Y-80.789
X48.95Y-72.797
X50.283Y-55.375
X51.46Y-75.715
X51.615Y-73.241
X52.311Y-72.228
X52.989Y-61.654
X53.546Y-64.309
X54.119Y-32.79
X54.374Y-74.146
X55.675Y-75.943
X56.044Y-97.731
X57.539Y-19.673
X57.76Y-21.422
X57.815Y-36.001
X57.832Y-74.108
X57.873Y-68.939
X57.874Y-66.375
X57.886Y-67.198
X57.991Y-100.679
X58.975Y-32.8
X58.975Y-44.846
X59.027Y-28.199
X59.071Y-62.16
X59.612Y-36.213
X59.684Y-34.72
X59.894Y-75.312
X60.319Y-67.892
X60.911Y-72.291
X61.495Y-11.545
X61.92Y-43.359
X62.471Y-75.296
X62.497Y-57.275
X62.595Y-11.527
X63.677Y-70.219
X63.683Y-68.499
X64.576Y-11.529
X64.843Y-32.235
X65.889Y-72.286
X66.111Y-86.1
X66.345Y-14.052
X66.453Y-68.438
X66.776Y-11.529
X67.457Y-30.069
X67.497Y-73.726
X67.538Y-72.287
X68.882Y-74.293
X69.176Y-62.874
X69.397Y-67.723
X69.445Y-41.259
X70.538Y-74.287
X71.852Y-67.031
X71.989Y-97.732
X73.0Y-100.045
X73.182Y-61.132
X73.59Y-66.86
X73.642Y-70.092
X75.576Y-69.451
X75.95Y-63.207
X76.239Y-69.851
X76.578Y-56.542
X77.175Y-73.06
X77.25Y-65.662
X78.516Y-65.159
X78.82Y-72.104
X79.881Y-61.206
X80.343Y-67.75
X80.347Y-68.75
X80.85Y-89.901
X80.851Y-86.1
X81.465Y-64.407
X82.915Y-31.89
X89.527Y-67.23
X89.771Y-32.711
X89.956Y-97.732
X90.031Y-17.549
X90.207Y-21.106
X90.546Y-18.1
X90.562Y-69.328
X90.635Y-19.605
X90.656Y-66.562
X90.736Y-73.066
X92.325Y-73.047
X92.969Y-56.794
X93.195Y-65.852
X93.474Y-73.299
X94.464Y-51.289
X94.578Y-52.808
X94.625Y-56.8
X95.288Y-53.526
X95.554Y-71.958
X95.71Y-17.42
X96.109Y-51.284
X99.5Y-38.959
X101.261Y-100.453
X102.0Y-39.559
X102.5Y-38.971
X104.319Y-96.819
X104.32Y-28.08
X104.374Y-87.564
X105.744Y-101.031
X107.378Y-17.576
X107.382Y-35.576
X107.389Y-18.603
X107.416Y-33.549
X107.479Y-36.35
X107.481Y-24.055
T3
X13.512Y-55.552
X21.825Y-59.537
X22.127Y-52.68
X24.559Y-29.51
X25.79Y-93.21
X30.825Y-80.071
X31.885Y-58.34
X33.967Y-55.833
X37.765Y-50.0
X41.811Y-93.189
X44.459Y-58.906
X46.134Y-50.309
X48.871Y-76.778
X50.097Y-60.953
X50.963Y-58.573
X56.211Y-93.211
X57.039Y-27.989
X61.242Y-59.933
X61.581Y-67.675
X63.695Y-11.295
X66.137Y-57.064
X66.185Y-52.367
X66.641Y-55.745
X67.55Y-67.78
X67.725Y-52.874
X70.225Y-51.119
X73.622Y-93.111
X74.112Y-63.885
X74.531Y-53.02
X77.388Y-62.726
X81.642Y-61.315
X87.55Y-37.279
X88.189Y-93.189
X104.011Y-93.189
T5
X88.0Y-43.0
X88.0Y-54.0
X90.0Y-43.0
X90.0Y-54.0
X107.0Y-77.0
X109.0Y-77.0
T6
X16.0Y-57.0
X16.0Y-59.54
X16.0Y-62.08
X16.0Y-64.62
X16.0Y-67.16
X16.0Y-69.7
T4
X8.0Y-53.68G85X7.2Y-53.68
G05
X8.0Y-62.32G85X7.2Y-62.32
G05
X12.33Y-53.68G85X11.23Y-53.68
G05
X12.33Y-62.32G85X11.23Y-62.32
G05
X105.75Y-63.3G85X105.25Y-63.3
G05
X105.75Y-68.2G85X105.25Y-68.2
G05
X105.75Y-69.5G85X105.25Y-69.5
G05
X109.85Y-69.8G85X109.35Y-69.8
G05
X110.35Y-62.2G85X109.85Y-62.2
G05
X112.35Y-69.5G85X111.85Y-69.5
G05
X113.85Y-63.3G85X113.35Y-63.3
G05
X113.85Y-68.7G85X113.35Y-68.7
G05
M30
